<mxfile host="Electron" modified="2024-03-14T17:26:01.004Z" agent="Mozilla/5.0 (Windows NT 10.0; Win64; x64) AppleWebKit/537.36 (KHTML, like Gecko) draw.io/23.1.5 Chrome/120.0.6099.109 Electron/28.1.0 Safari/537.36" etag="67s86hSD9CPT3huqjmNp" version="23.1.5" type="device">
  <diagram name="PÃ¡gina-1" id="XpXUzrEFEvgvmMstNagA">
    <mxGraphModel dx="4097" dy="2411" grid="1" gridSize="10" guides="1" tooltips="1" connect="1" arrows="1" fold="1" page="1" pageScale="1" pageWidth="827" pageHeight="1169" math="1" shadow="0">
      <root>
        <mxCell id="0" />
        <mxCell id="1" parent="0" />
        <mxCell id="V3Y5hAb7EUgZpCenIAGe-1" value="" style="shape=image;verticalLabelPosition=bottom;labelBackgroundColor=default;verticalAlign=top;aspect=fixed;imageAspect=0;image=data:image/png,iVBORw0KGgoAAAANSUhEUgAADhAAAAPoCAYAAACFrFWOAAAAOXRFWHRTb2Z0d2FyZQBNYXRwbG90bGliIHZlcnNpb24zLjguMywgaHR0cHM6Ly9tYXRwbG90bGliLm9yZy/H5lhTAAAACXBIWXMAAD2EAAA9hAHVrK90AAD9I0lEQVR4nOzdeZhdVZUo8FVz5gnCZCAhMcyTgIFEeGFUoBkEtW1EJkGQplvFprXtbiXp199rX/Og1QcqSMvwAKduJgGRMRFMhXlIgBDMBAkJZCRDVWq874+iKnXr3hpTlTr31O/3fX6Yve/ZZ+99zl21zq2s3KJMJpMJAAAAAAAAAAAAAAAAACBVivt7AgAAAAAAAAAAAAAAAABA71NACAAAAAAAAAAAAAAAAAAppIAQAAAAAAAAAAAAAAAAAFJIASEAAAAAAAAAAAAAAAAApJACQgAAAAAAAAAAAAAAAABIIQWEAAAAAAAAAAAAAAAAAJBCCggBAAAAAAAAAAAAAAAAIIUUEAIAAAAAAAAAAAAAAABACikgBAAAAAAAAAAAAAAAAIAUUkAIAAAAAAAAAAAAAAAAACmkgBAAAAAAAAAAAAAAAAAAUkgBIQAAAAAAAAAAAAAAAACkkAJCAAAAAAAAAAAAAAAAAEghBYQAAAAAAAAAAAAAAAAAkEIKCAEAAAAAAAAAAAAAAAAghRQQAgAAAAAAAAAAAAAAAEAKKSAEAAAAAAAAAAAAAAAAgBRSQAgAAAAAAAAAAAAAAAAAKaSAEAAAAAAAAAAAAAAAAABSSAEhAAAAAAAAAAAAAAAAAKSQAkIAAAAAAAAAAAAAAAAASCEFhAAAAAAAAAAAAAAAAACQQgoIAQAAAAAAAAAAAAAAACCFFBACAAAAAAAAAAAAAAAAQAopIAQAAAAAAAAAAAAAAACAFFJACAAAAAAAAAAAAAAAAAAppIAQAAAAAAAAAAAAAAAAAFJIASEAAAAAAAAAAAAAAAAApJACQgAAAAAAAAAAAAAAAABIIQWEAAAAAAAAAAAAAAAAAJBCCggBAAAAAAAAAAAAAAAAIIUUEAIAAAAAAAAAAAAAAABACikgBAAAAAAAAAAAAAAAAIAUUkAIAAAAAAAAAAAAAAAAACmkgBAAAAAAAAAAAAAAAAAAUkgBIQAAAAAAAAAAAAAAAACkkAJCAAAAAAAAAAAAAAAAAEghBYQAAAAAAAAAAAAAAAAAkEIKCAEAAAAAAAAAAAAAAAAghRQQAgAAAAAAAAAAAAAAAEAKKSAEAAAAAAAAAAAAAAAAgBRSQAgAAAAAAAAAAAAAAAAAKaSAEAAAAAAAAAAAAAAAAABSSAEhAAAAAAAAAAAAAAAAAKSQAkIAAAAAAAAAAAAAAAAASCEFhAAAAAAAAAAAAAAAAACQQgoIAQAAAAAAAAAAAAAAACCFFBACAAAAAAAAAAAAAAAAQAopIAQAAAAAAAAAAAAAAACAFFJACAAAAAAAAAAAAAAAAAAppIAQAAAAAAAAAAAAAAAAAFJIASEAAAAAAAAAAAAAAAAApJACQgAAAAAAAAAAAAAAAABIIQWEAAAAAAAAAAAAAAAAAJBCCggBAAAAAAAAAAAAAAAAIIUUEAIAAAAAAAAAAAAAAABACpX29wSAge29996LBx98MKtt4sSJMXTo0H6aEQAAAAAAAAAAAAAAAGmyZcuWWLx4cVbb6aefHnvssUc/zWjHUUAI9KsHH3wwLr/88v6eBgAAAAAAAAAAAAAAAAPITTfdFJdddll/T6PPFff3BAAAAAAAAAAAAAAAAACA3qeAEAAAAAAAAAAAAAAAAABSSAEhAAAAAAAAAAAAAAAAAKRQaX9PABjYJk6cmNN20003xcEHH9wPswEAAAAAAAAAAAAAACBt5s2bF5dffnlWW76aljRSQAj0q6FDh+a0HXzwwTF16tR+mA0AAAAAAAAAAAAAAAADQb6aljQq7u8JAAAAAAAAAAAAAAAAAAC9TwEhAAAAAAAAAAAAAAAAAKSQAkIAAAAAAAAAAAAAAAAASCEFhAAAAAAAAAAAAAAAAACQQgoIAQAAAAAAAAAAAAAAACCFFBACAAAAAAAAAAAAAAAAQAopIAQAAAAAAAAAAAAAAACAFFJACAAAAAAAAAAAAAAAAAAppIAQAAAAAAAAAAAAAAAAAFJIASEAAAAAAAAAAAAAAAAApJACQgAAAAAAAAAAAAAAAABIIQWEAAAAAAAAAAAAAAAAAJBCCggBAAAAAAAAAAAAAAAAIIUUEAIAAAAAAAAAAAAAAABACikgBAAAAAAAAAAAAAAAAIAUUkAIAAAAAAAAAAAAAAAAACmkgBAAAAAAAAAAAAAAAAAAUkgBIQAAAAAAAAAAAAAAAACkkAJCAAAAAAAAAAAAAAAAAEghBYQAAAAAAAAAAAAAAAAAkEIKCAEAAAAAAAAAAAAAAAAghRQQAgAAAAAAAAAAAAAAAEAKKSAEAAAAAAAAAAAAAAAAgBRSQAgAAAAAAAAAAAAAAAAAKaSAEAAAAAAAAAAAAAAAAABSSAEhAAAAAAAAAAAAAAAAAKSQAkIAAAAAAAAAAAAAAAAASCEFhAAAAAAAAAAAAAAAAACQQgoIAQAAAAAAAAAAAAAAACCFFBACAAAAAAAAAAAAAAAAQAopIAQAAAAAAAAAAAAAAACAFFJACAAAAAAAAAAAAAAAAAAppIAQAAAAAAAAAAAAAAAAAFJIASEAAAAAAAAAAAAAAAAApJACQgAAAAAAAAAAAAAAAABIIQWEAAAAAAAAAAAAAAAAAJBCCggBAAAAAAAAAAAAAAAAIIUUEAIAAAAAAAAAAAAAAABACikgBAAAAAAAAAAAAAAAAIAUUkAIAAAAAAAAAAAAAAAAACmkgBAAAAAAAAAAAAAAAAAAUkgBIQAAAAAAAAAAAAAAAACkkAJCAAAAAAAAAAAAAAAAAEghBYQAAAAAAAAAAAAAAAAAkEIKCAEAAAAAAAAAAAAAAAAghRQQAgAAAAAAAAAAAAAAAEAKKSAEAAAAAAAAAAAAAAAAgBRSQAgAAAAAAAAAAAAAAAAAKaSAEAAAAAAAAAAAAAAAAABSSAEhAAAAAAAAAAAAAAAAAKSQAkIAAAAAAAAAAAAAAAAASCEFhAAAAAAAAAAAAAAAAACQQgoIAQAAAAAAAAAAAAAAACCFFBACAAAAAAAAAAAAAAAAQAopIAQAAAAAAAAAAAAAAACAFFJACAAAAAAAAAAAAAAAAAAppIAQAAAAAAAAAAAAAAAAAFJIASEAAAAAAAAAAAAAAAAApJACQgAAAAAAAAAAAAAAAABIIQWEAAAAAAAAAAAAAAAAAJBCCggBAAAAAAAAAAAAAAAAIIUUEAIAAAAAAAAAAAAAAABACikgBAAAAAAAAAAAAAAAAIAUUkAIAAAAAAAAAAAAAAAAACmkgBAAAAAAAAAAAAAAAAAAUqi0vydQiNavXx9vvPFGLF68ONauXRtbtmyJkpKSGDp0aOy6664xceLEOPDAA2Pw4MH9PVUAAAAAAAAAAAAAAAAABigFhF306quvxt133x0PP/xwvP7665HJZDp8fXl5eRxxxBFx9tlnx1/91V/FnnvuuYNmCgCQPuc9fF68tvq1rLZDxh4Sd512Vz/NqHekdV3N0r6+tHLdClear521FaY0ry0i/etLq7Rft7SvL63SfN2srTCleW0R6V6ftRWuNK8vzWuLSPf60ry2iHSvz9oKV5rXZ20kkWtH0qT5nrQ2kijN187aSKI0XztrI2nSfN3SvDbYERQQdmL27Nkxc+bMeOqpp7p1XG1tbVRWVkZlZWV897vfjXPPPTdmzJgRkyZN6qOZ7niPPPJITtspp5zSDzMZGGbPnh3V1dVZbdOnT/dNlwAAAAAAAAAAAAAAAEBeCgjbsWHDhvjGN74Rd9xxx3aP1dDQEHfeeWf813/9V3z/+9+P73znO1FcXNwLs+xfp556ak5bZ9/MSM9deOGFsWzZsqy2JUuWxIQJE/pnQgAAAAAAAAAAAAAAAECiKSDM4/XXX4/Pfvaz8ec//7nD140aNSomTZoUI0eOjIaGhli/fn38+c9/jqqqqryv37p1a/zjP/5j/PGPf4xf/vKXMWrUqD6YPQAAAAAAAAAAAAAAAAAoIMzx8ssvx0knnRTr1q3L2z958uS47LLL4owzzoh99903p7+xsTFeeuml+K//+q/4xS9+EatXr855zSOPPBInnXRSPPbYYzF69OheXwMAAAAAAAAAAAAAAAAAFPf3BJJk8eLFcfLJJ+ctHhw2bFj89Kc/jTfffDOuvvrqvMWDERHFxcVx5JFHxg9+8INYtGhRXH311VFcnLvNL774YvzFX/xF1NbW9vo6AAAAAAAAAAAAAAAAAEAB4Ueqq6vjrLPOirVr1+b0TZw4MV588cX42te+FiUlJV0ec/jw4XHttdfGQw89FEOHDs3pr6ysjCuvvHK75g0AAAAAAAAAAAAAAAAA+Sgg/Mj3vve9mD9/fk77XnvtFU8//XTss88+PR77lFNOiYceeigqKipy+m655ZZ4+OGHezw2AAAAAAAAAAAAAAAAAOSjgDAi3njjjfjhD3+Y015SUhL33HNP7LHHHtt9junTp8d1112Xt+/KK6+M2tra7T4HAAAAAAAAAAAAAAAAADQr7e8JJME111wTDQ0NOe1XXXVVHHHEEb12niuuuCLuvPPOmDt3blb70qVL4z//8z/jiiuu6LVzDQSZTCZee+21mD9/frz//vtRVVUVQ4cOjQkTJsSUKVPiYx/7WH9PEQAAAAAAAAAAAAAAAKDfDPhvIFy2bFncc889Oe3jxo2LmTNn9uq5iouL46abboqioqKcvnzfgNjWjBkzoqioKOt/M2bM6PF8li5dmjPehAkT2n39RRddlPXafNqO197/brvttrzHz5o1K+e1xx13XNZr3n///fjOd74Te+yxRxx22GHx5S9/Of7u7/4uvve978W3vvWtOOecc2LcuHExZcqUuPPOOyOTyfRof2677bacuVx00UU9GqtZvr1oT9vrvWzZspzX7L333l3a7+25TwAAAAAAAAAAAAAAAIDCNOALCG+99dZobGzMab/00ktjyJAhvX6+Qw45JKcgLiJi4cKFMXv27F4/X9rcfffdsd9++8W///u/x6pVqzp87fPPPx/nn39+TJ06NRYtWrSDZggAAAAAAAAAAAAAAACQDAO+gPDee+/NaSsuLo6LL764z855ySWX5G2/7777+uycaXDdddfFeeedFxs2bOjWcc8++2xMmTIlnnvuub6ZGAAAAAAAAAAAAAAAAEACDegCwvfeey9ee+21nPZjjz029tprrz477+c+97kYNGhQTvsjjzzSZ+csdPfcc0/8/d//fU772LFj44gjjojp06fHPvvsE2VlZXmPX7duXZxyyimxYMGCvp4qAAAAAAAAAAAAAAAAQCKU9vcE+tOzzz6bt33q1Kl9et5BgwbFoYcemnP+t956Kz788MMYOXJkn56/p773ve/F1772tZY/59unysrKLo01adKkLp93zZo1cdlll0Umk2lp+9KXvhR/+7d/G0cffXTWa9evXx+//e1vY8aMGbFy5cqcvi996Uvx/PPPR0lJSZfP318uvfTSOOWUU1r+fPbZZ8eqVauyXnPPPffE7rvv3ulY48aN6/X5AQAAAAAAAAAAAAAAAMk2oAsIX3nllbztRx55ZJ+f+8gjj8wpIMxkMvHKK6/E9OnT+/z8PTFp0qROC//aFvT1htdff73l/1dUVMQvf/nLOPvss/O+dvTo0XHZZZfF5z//+Tj33HPj0Ucfzep/+eWX47rrrotvf/vbvT7P3jZu3Liswr+Kioqc13ziE5+ICRMm7MBZAQAAAAAAAAAAAAAAAIViQBcQLlq0KG/74Ycf3ufnPuKII/K2L1q0KLEFhP2tqKgo7rrrrnaLB1sbM2ZM3HvvvXHiiSfG3Llzs/pmzpwZl156aYwZM6avpjqgdPVbJ9szb968XpoJAAAAAAAAAAAAAAAA0NqALiBcsWJF3vZdd921z8+9yy675G1fvnx5n5+7UF144YXxuc99rsuvHzJkSNx+++1x0EEHRV1dXUt7VVVV3HHHHfHNb36zD2Y58EybNq2/pwAAAAAAAAAAAAAAAADkMaALCNetW5fTVlZWFkOGDOnzc48aNSpv+/r16/v83IWooqIifvCDH3T7uH322SeuuOKK+PGPf5zVfvPNNysgTLDZv5wfqyqLYpfxI+NTn9s/q6/yvgWxavGGiIg49WtHxKAhZS19KxaujecefDsiIg6ePj4+fsTuWcfe/6Nno7EhE6N2GRLHf/mQrL6XHl0Uy+avjoiIEy44JEbuvC0OrH73w3jmt29GRMTkT+4RBx27V9axj9z8UlRvro3Bw8rjlMuyv8F0/tPvxNvPvxcREcd8Yf8Yu+fIlr4P11TFk3e8FhER4w8aG4d/elLWsU/d+Vps+KAqikuK4qxvHJXV9+cXV8a82csiImLK6ZPjY/vs1NK3taoufv+zFyMiYreJo2LqZ/fLOvZP//1mfLDsw4iIOP3KI6OsYtuPgnffXB0v/L7p21kPPWFCTDxst6xj772+6Rs9x+w+LKafe1BW3/MPvx3LF6yNiIiTLz40ho0e3NL3/tINMeeeBRERsd/UcbH/1HFZxz780xeipro+ho4aFJ/+ymFZfa/NWhqLXloVERH/468OjJ32GN7St/79zTHrrvkREbH3obvGYSfunXXsE7e/GhvXVkdpeUmc8TefzOp767kV8cYz70ZExNFn7RO7T9r2raRVm2riDz9/OSIi9pg8Jo46Y5+sY5/+zeuxZvmmiIg48+tToqS0uKVv6bz34+XHlkRExCdO3jsmHLytKL2hvjEe+PFzERGx87jhcexfHpg17rO/Wxjvvd30s+kzX/1EDBle0dK3ctG6mHv/woiIOOCYPWPfKR/LOvZ3Nzwf9bUNMWKnwXHihYdm9b3yxJJY8ur7ERFx3HkHxehdh7X0rX1vU/zxV69HRMSkw3eLQ46bkHXso794JbZs2BoVg0vjtCuOzOp7s3J5LKhsKnyfds5+seuEUS19m9dXx2O3vhoREeP22yk+edrkrGNn/3J+rFu5OSIizv7W0Vl9i19ZFa8+uTQiIo48dVLsuf/Ylr66mvp48MYXIiLEiAEWI9aVbY4oixyFHiPyWffe5nj6N6+nIkasey//dRMjtklijGjvukUkN0bII5pixLr381+7pMaInuYRzda9tzmnrRBjREfvuSTGiO7kEfmse29zLH5lVSpixLq6/NcuqTGi0PKIvnrWaO89l9QY0dM8orX6moasPyclRsgjcmNEa5vXbc1pK8QY0d57Lqkxoqd5RLN1722OrVV1iY8RneURHeUnaYoRrVVvqs1pS1qM6EoesW5j/muX1BjR0zyi2YZVW3LakhgjupJHrBuR/9olMUb0NI9orba6PuvPSYwRXc0jPhxTFVGUvb6qD2tazpukGNGTPKIzSYwRXc0j6iZk58kRTT/L771+buJiRET384iOJDFGdDWP2LxLdc56Nq2tbnnPJS1GdDePaKhtzFlfa0mLEd3JIxonZ3LW0/yeS2KM6OlnlvkkMUYUWh7RV88atVXZOUlbSYsRhZZHFOKzRn9/HlG7V+492Rwr0xAjOpLEGNHVPGLjzrn5yZb1W1v6xYjkxoiGibm5V/N7LokxoqefWeaTxBjR1Txiy241OevZuLoq7r1+biJjhDxiW4yIfSNH83suiTGip59Z5pPEGNHVPGLruLpoa/3KpuuWxBhRaHmEzyx9ZhlR2DGi0PKIfDFioBnQBYTV1bkPbyNHjszzyt7X3nnyzYmI008/vcffDHnJJZfkFBC++eabsXjx4pg4cWJvTI9etnVLXVRtrImaqtzEs7a6Pqo2fvQQmMn+JUN9XUNLX11t7i/9qjbWRGNDJgYNzf0tfN3WbeNmGrPHbWzItPTV1+R+WFe9uXbbnNqor9k2bmND9riZxm3j1m3NHbd5H4pLinL66mq3rbW+rs1aM9vGbftL+IiImqq69udb19jpHkZEDBlRkdOXtYdtfv/TUN9q3Dx7WLWpNmqq6rKSv5Zxaxpa7WH2Bzed7WHztSmrKOlw3Ib6Nh8IZaLVHubehzVV9V3aw/q63A+amvtqqnL/slJtdatr0+Ee5l6b6k01UVfTkH+tHd7fHY+79aM9zNmjaLqW7e1hptUednR/55N9f3e0h2LEQIoRjSMb2/mL3umKEc3rqMnzC8tCjBGNDfmvmxixTRJjRHvXLSK5MUIe0XSu9q5dUmNET/OI1ufPGbcAY0RH77kkxoie5hHNGhsaUxMjGks7z0+SFCMKLY/oq2eNjt5zSYwRPc0jWmv7vklijJBH5Gp7P0QUZoxo7z2X1BjR0zyi9boKIUZ0lkd0FCvTFCOyppfnPZe4GNGFPKK9a5fUGNHTPKL163LGTWCM6Eoe0Tg0/7VLYozoaR6RNU5OgpK8GNHVPKJxZGPOb9xb32tJihE9zSM6ksQY0dU8ImfCrcZOWoxoPke+cduLER1JYozoah7RuHPunFqfN2e+hfaskee+bC2JMaKneUREq/dcAmNETz+zzCeJMaLQ8oi+etbIyUnaSFyMKMA8otCeNfr784h892TznNMQIzqSxBjR1TwiM7oxos3bubHVesSIBMeIjp4JEhgjevqZZT5JjBFdzSMyu+S5bh/1JzFGyCPajxHN86zaWJPMGNHDzyzzSWKM6GoekT8/abqfkhgjCi2P8JmlzyybXl+4MaLQ8ojufqaTRgO6gLChIfeGrajIDcR9ob3z1NV1L5EfKP7yL/+yx8cecsghsd9++8WCBQuy2p977jkFhAk1aGhZDBlRERVDcn9wlA8u3ZYwFWUnc6VlJS19ZeW5P7iHjKho9wdS2aBt4xYVZ49bXFLU0ldakRs2Bw8rz/pv1pwqto3bNvksKt42btmg3HGb9yFf0lpWvm2tpWVt1lq0bdzywbnjVgwpy5t0No1V3OkeNs8tZ06t97DNlEtKW42bZw+HDC+PktLiGJRnD8sqSlrtYfaDb2d7OHhYedTVNERpnrW0HjfngbooWu1h7lorhpR2aQ9Ly3If1Jv7Kobkzrd8cKtr0+Ee5q5n8PCKKKtoyHsfdnx/dzzuoGHl0VDfGBV57qWyVvd32z0sarWHHd3f+WTf3x3toRgxkGJE2/d/y7gpixHN60hLjGjvuokR2yQxRrR33SKSGyPkEU3nKt6Y/9olNUb0NI9off6ccQswRnT0nktijOhpHtGsuKQ4NTGiuK7z/CRJMaLQ8oi+etbo6D2XxBjR0zyitbbvmyTGCHlErrb3Q0Rhxoj23nNJjRE9zSNar6sQYkRneURHsTJNMSJrennec4mLEV3II4rr81+7pMaInuYRrV+XM24CY0RX8oj23ndJjBE9zSOyxslJUJIXI7qaR+S7dq3vtSTFiJ7mER1JYozoah6RM+FWYyctRjSfI9+4PSkgTGKM6GoeUVwcEW3+mkfr8+bMt9CeNfLcl60lMUb0NI+IaPWeS2CM6OlnlvkkMUYUWh7RV88aOTlJG4mLEQWYRxTas0Z/fx6R755snnMaYkRHkhgjuppHFJUU5/zF9OJW6xEjEhwjOnomSGCM6OlnlvkkMUZ0NY8oKi7KeSZofs8lMUbII9qPEc3zHDKiIpkxooefWeaTxBjR1Twif37SdD8lMUYUWh7hM0ufWTa9vnBjRKHlEd39TCeNijKd/XNKKXbAAQfEm2++mdU2fPjw2LhxY5+f+8UXX4wjjzwyp/3KK6+MG264Ie8xM2bMiJkzZ2a1XXPNNTFjxowezWHp0qWx9957Z7WNHz8+li5d2qXj8yUF23s7zZo1K44//vic9sWLF+fMtTsuuOCC+H//7/9ltV111VVx/fXXt3vMbbfdFhdffHFW24UXXhi33XZbj+exPXs2YcKEWLZsWVbbkiVLYsKECT2eT2+orKzcruPnzZsXl19+eVbbnDlzYurUqds1LgDpct7D58Vrq1/Lajtk7CFx12l39dOMekda19Us7etLK9etcKX52llbYUrz2iLSv760Svt1S/v60irN183aClOa1xaR7vVZW+FK8/rSvLaIdK8vzWuLSPf6rK1wpXl91kYSuXYkTZrvSWsjidJ87ayNJErztbM2kibN1y3Na2PHqaysjGnTpmW1DZT6lQFdQjl06NCcts2bN0dDQ0OUlHTvXwforg0bNnR5TgPdiBEjtqt4MCLi0EMPzSkgXLx48XaNSZOBECgBAAAAAAAAAAAAAACgEHXv+zxTZrfddstpy2Qy8eGHH/b5uds7R745DXS77rrrdo+Rb1/bK+IEAAAAAAAAAAAAAAAASIMBXUC455575m1/++23+/zcCxcuzNve3pwGshEjRvTJGOvXr9/ucQEAAAAAAAAAAAAAAACSakAXEB544IF5259//vk+P3d752hvTgPZ4MGD+2SMqqqq7R4XAAAAAAAAAAAAAAAAIKkGdAHh4Ycfnrf9hRde6PNz5zvH0KFDY9999+3zcxeazZs3b/cYmzZtymkbOXLkdo8LAAAAAAAAAAAAAAAAkFQDuoDwiCOOiOHDh+e0P/7449HQ0NBn533rrbfinXfeyWmfPn16FBfvuEtSV1e3w861PTZu3NgnY4waNWq7x+2OQtlvAAAAAAAAAAAAAAAAIB0GdAFheXl5nHTSSTntK1asiEceeaTPznvLLbfkbT/11FM7PK60tDSnrb6+vsfzWLt2bY+P3ZGWL1++3cV3S5YsyWkbM2ZMh8cM1P0GAAAAAAAAAAAAAAAA0mFAFxBGRJx33nl529sr8ttedXV1cccdd+S0l5eXxxe/+MUOj833bYmbN2/u8VxWrFjR42N3pNra2njzzTe3a4xXX301p+3AAw/s8JiBut8AAAAAAAAAAAAAAABAOgz4AsIzzzwzdtttt5z2Bx54ICorK3v9fP/xH/8RH3zwQU772WefHWPHju3w2JEjR+a0rVq1qsdz+dOf/tTjY3e0p59+usfHNjQ05L2WU6ZM6fC4pO13UVHRdh0PAAAAAAAAAAAAAAAADCwDvoCwrKwsvvOd7+S0NzY2xle/+tWoq6vrtXMtWbIkZs6cmdNeVFQU//zP/9zp8XvssUdO22uvvdajuWQymXjwwQd7dGyzioqKnLbe3K/W7r777h4f+/jjj8f777+f1VZUVNRpAWG+/Z4/f340Njb2aB4PPPBAj45rtiP3GwAAAAAAAAAAAAAAACh8A76AMCLiiiuuiI9//OM57a+//nr80z/9U6+co66uLi666KKoqqrK6bvwwgvjoIMO6nSMww8/PKdtwYIF8e6773Z7Pg888EC8/fbb3T6uteHDh+e0bdmyZbvGbM+cOXPixRdf7NGx//f//t+ctpNOOil22mmnDo+bPHlyzhq3bNkSc+bM6fYcXn311XjiiSe6fVxrO3K/AQAAAAAAAAAAAAAAgMKngDCavtntlltuiaKiopy+a6+9Nq677rrtGr+uri7OP//8+OMf/5jTt9tuu8X111/fpXF23nnnGD9+fFZbJpOJ//zP/+zWfNavXx9f//rXu3VMPqNHj85pW7p06XaP256vf/3rkclkunXMI488Eg899FBO+2WXXdbpsUVFRXmLNm+55ZZuzaG2tjYuueSSbh2Tz47ebwAAAAAAAAAAAAAAAKCwKSD8yPTp0+Oaa67J23f11VfHlVdeGVu3bu32uKtWrYpTTz01fv3rX+f0lZWVxa9+9au8hWHt+fznP5/Tdu2118bChQu7dPzGjRvjc5/7XLzzzjtdPmd7DjjggJy2ysrK7R63PXPmzImrr766y69/++2348ILL8xpHz9+fJx11lldGiPfft9xxx15i0Hzqauri4svvrjH357Y2o7ebwAAAAAAAAAAAAAAAKCwKSBs5fvf/358+ctfztv3k5/8JA466KC48847o7a2ttOxNmzYENdee20ccMAB8cQTT+T0FxUVxc9+9rOYPn16t+aY75vsqqqq4sQTT4wXXnihw2Nnz54dn/rUp+Kpp56KiIghQ4Z069xtHXHEETltP/rRj+LDDz/crnHbav3NkNdff3389V//dWzZsqXDY2bPnh0nnnhifPDBBzl9P/nJT6KsrKxL5z7vvPNi0KBBWW2ZTCbOPPPM+MMf/tDhsa+88kqccMIJcffdd0dE3+z3L37xi1i+fPl2jQsAAAAAAAAAAAAAAACkU2l/TyBJioqK4vbbb4/S0tK47bbbcvoXLVoU559/flx11VXxmc98Jo466qiYNGlSjBgxIhobG2PdunWxcOHCeOaZZ+Lxxx+P6urqvOcpKSmJm266Kb7yla90e477779/XHDBBXHHHXdktS9fvjyOOuqoOOOMM+K0006LCRMmREVFRaxevTreeOONeOihh+K5555reX1xcXH8+Mc/jksvvbTbc2j2+c9/Pr7//e9ntb311ltx4IEHxvnnnx9HHHFE7LzzzjkFeBERkyZNirFjx3bpPNOmTYstW7bEK6+8EhERP/3pT+Ohhx6KSy65JM4444zYa6+9YtiwYbFy5cp46aWX4q677op77703MplMzlhf+tKX4rTTTuvyGkePHh3f/va341/+5V+y2j/88MM45ZRT4oQTToizzjorJk+eHMOGDYs1a9bE22+/HY888kjMmjUraw433HBDj655s9NPPz0GDRqU9U2Ya9asiUMPPTTOP//8OOqoo2K33XaLwYMH5xw7bty4GDduXI/PDQAAAAAAAAAAAAAAABQeBYRtFBcXx6233hoHHXRQfPe73426urqc16xZsybuuuuuuOuuu7o9/tixY+PXv/51HH/88T2e4w9/+MN44oknYsWKFVntjY2Ncf/998f999/f6Rg33nhjnHjiiT2eQ0RTMePJJ58cjz32WFb7ihUr4gc/+EGHx956661x0UUXdek8paWlcffdd8fUqVNbvt3wnXfeiWuuuSauueaaLs/3E5/4RNx0001dfn2zf/qnf4r7778/Xn311Zy+J598Mp588slOx/jOd74TF1988XYVEI4ePTrOP//8+PnPf57Vvm7duvjRj37U4bHXXHNNzJgxo8fnBgAAAAAAAAAAAAAAAApPUSbf17QRERHz5s2Lv/7rv45nnnlmu8cqLi6OCy64IP7P//k/sdNOO233eH/+85/jpJNOimXLlnXruPLy8vjZz34WF198cSxdujT23nvvrP7x48fH0qVLuzze8uXL4/DDD4/Vq1d3ax7tFRDOmjUrp7hy+vTpMWvWrHjmmWfijDPOiA0bNnTrXBERU6dOjQcffDDGjBnT7WMjIlavXh2f+cxn4uWXX+7WcUVFRfEv//Iv8c///M8tf26rO2/BTZs2xZFHHhkLFy7s1jySXEBYWVkZ06ZNy2qbM2dOTJ06tZ9mBAAAAAAAAAAAAAAAQJoM5PqV4v6eQJIdfPDB8fTTT8fjjz8eZ5xxRpSVlXV7jJEjR8ZXv/rVeOONN+LWW2/tleLBiIiPf/zjMXfu3LjooouiuLhrl/HYY4+NF154IS6++OJemUNExLhx4+Kll16Kz3zmM702ZnuOOeaYeO655+KYY47p8jEVFRXx3e9+N2bPnt3j4sGIpm+OnDVrVnzrW9+K8vLyLh1zyCGHxKxZs1qKB3vD8OHDY+7cuXHuued2+boDAAAAAAAAAAAAAAAAA1Npf0+gEJx44olx4oknxrp16+Kxxx6LP/3pTzF//vxYsmRJrFu3LqqqqqKoqCiGDh0au+66a0yaNCkOO+ywOPbYY+P444+PioqKPpnXbrvtFrfeemv8wz/8Q9x3333x6KOPxpIlS2L16tVRU1MTI0eOjMmTJ8enPvWp+MIXvhBTpkzJOn7ChAnd+va79owbNy4eeeSRWLhwYfz2t7+Nl156KV5//fVYt25dbNq0KbZu3brd52g2efLkePrpp+Oxxx6L22+/PR5//PF4//33s15TVFQU+++/f3z2s5+Nr33ta7Hnnnv2yrlHjBgR1113XXzzm9+Me++9t2XNq1evjqqqqhg+fHhMnDgxjjrqqDjnnHPixBNPzBmjN/Z79OjRcffdd8e///u/x69//et44YUXYt68ebF69erYvHlzVFVVbfc5AAAAAAAAAAAAAAAAgMJXlOmNiiboJbNmzYrjjz8+q2369Okxa9asdo9Zs2ZNrFq1Kqqrq2Po0KExfvz4GDp0aB/PlN4ykL8CFgAAAAAAAAAAAAAAgL43kOtXfAMhBW/nnXeOnXfeub+nAQAAAAAAAAAAAAAAAJAoxf09AQAAAAAAAAAAAAAAAACg9ykgBAAAAAAAAAAAAAAAAIAUUkAIAAAAAAAAAAAAAAAAACmkgBAAAAAAAAAAAAAAAAAAUkgBIQAAAAAAAAAAAAAAAACkkAJCAAAAAAAAAAAAAAAAAEghBYQAAAAAAAAAAAAAAAAAkEIKCAEAAAAAAAAAAAAAAAAghRQQAgAAAAAAAAAAAAAAAEAKlfb3BKC14447LjKZTH9PAwAAAAAAAAAAAAAAAKDg+QZCAAAAAAAAAAAAAAAAAEghBYQAAAAAAAAAAAAAAAAAkEIKCAEAAAAAAAAAAAAAAAAghRQQAgAAAAAAAAAAAAAAAEAKKSAEAAAAAAAAAAAAAAAAgBRSQAgAAAAAAAAAAAAAAAAAKaSAEAAAAAAAAAAAAAAAAABSSAEhAAAAAAAAAAAAAAAAAKSQAkIAAAAAAAAAAAAAAAAASCEFhAAAAAAAAAAAAAAAAACQQgoIAQAAAAAAAAAAAAAAACCFFBACAAAAAAAAAAAAAAAAQAopIAQAAAAAAAAAAAAAAACAFFJACAAAAAAAAAAAAAAAAAAppIAQAAAAAAAAAAAAAAAAAFJIASEAAAAAAAAAAAAAAAAApJACQgAAAAAAAAAAAAAAAABIIQWEAAAAAAAAAAAAAAAAAJBCCggBAAAAAAAAAAAAAAAAIIUUEAIAAAAAAAAAAAAAAABACikgBAAAAAAAAAAAAAAAAIAUUkAIAAAAAAAAAAAAAAAAACmkgBAAAAAAAAAAAAAAAAAAUkgBIQAAAAAAAAAAAAAAAACkkAJCAAAAAAAAAAAAAAAAAEghBYQAAAAAAAAAAAAAAAAAkEIKCAEAAAAAAAAAAAAAAAAghRQQAgAAAAAAAAAAAAAAAEAKKSAEAAAAAAAAAAAAAAAAgBRSQAgAAAAAAAAAAAAAAAAAKaSAEAAAAAAAAAAAAAAAAABSSAEhAAAAAAAAAAAAAAAAAKSQAkIAAAAAAAAAAAAAAAAASCEFhAAAAAAAAAAAAAAAAACQQgoIAQAAAAAAAAAAAAAAACCFFBACAAAAAAAAAAAAAAAAQAqV9vcEYKCaMWNGzJw5s8/Ps379+hg1alSfnweAPnLLSRHLn89uG/fJiEsf75/59KY0ry3NXLfClObrZm2FK+3ro/Ck+Z5M89ooTO5JkibN96S1FSZrK0zWVpjSvLaIdK/P2gAAID/5JEnjnixcrh1J454E2C6+gRAAAAAAAAAAAAAAAAAAUkgBIQAAAAAAAAAAAAAAAACkkAJCAAAAAAAAAAAAAAAAAEih0v6eAJCtsrKyV8cbPnx4r44HAAAAAAAAAAAAAAAAFAYFhJAwRx99dH9PAQAAAAAAAAAAAAAAAEiB4v6eAAAAAAAAAAAAAAAAAADQ+xQQAgAAAAAAAAAAAAAAAEAKKSAEAAAAAAAAAAAAAAAAgBRSQAgAAAAAAAAAAAAAAAAAKaSAEAAAAAAAAAAAAAAAAABSSAEhAAAAAAAAAAAAAAAAAKSQAkIAAAAAAAAAAAAAAAAASCEFhAAAAAAAAAAAAAAAAACQQgoIAQAAAAAAAAAAAAAAACCFFBACAAAAAAAAAAAAAAAAQAqV9vcEgGxFRUW9NtZTTz0Vxx13XK+Nl09lZeV2HT9v3rxemgkAAAAAAAAAAAAAAADQmgJCYLtMmzatv6cAAAAAAAAAAAAAAAAA5KGAEEic2b+cH6sqi2KX8SPjU5/bP6uv8r4FsWrxhoiIOPVrR8SgIWUtfSsWro3nHnw7IiIOnj4+Pn7E7lnH3v+jZ6OxIROjdhkSx3/5kKy+lx5dFMvmr46IiBMuOCRG7jykpW/1ux/GM799MyIiJn9yjzjo2L2yjn3k5peienNtDB5WHqdcdnhW3/yn34m3n38vIiKO+cL+MXbPkS19H66piifveC0iIsYfNDYO//SkrGOfuvO12PBBVRSXFMVZ3zgqq+/PL66MebOXRUTElNMnx8f22amlb2tVXfz+Zy9GRMRuE0fF1M/ul3Xsn/77zfhg2YcREXH6lUdGWcW2HwXvvrk6Xvj9ooiIOPSECTHxsN2yjr33+rkRETFm92Ex/dyDsvqef/jtWL5gbUREnHzxoTFs9OCWvveXbog59yyIiIj9po6L/aeOyzr24Z++EDXV9TF01KD49FcOy+p7bdbSWPTSqoiI+B9/dWDstMfwlr7172+OWXfNj4iIvQ/dNQ47ce+sY5+4/dXYuLY6SstL4oy/+WRW31vPrYg3nnk3IiKOPmuf2H3SmJa+qk018YefvxwREXtMHhNHnbFP1rFP/+b1WLN8U0REnPn1KVFSWtzSt3Te+/HyY0siIuITJ+8dEw7etaWvob4xHvjxcxERsfO44XHsXx6YNe6zv1sY7729LiIiPvPVT8SQ4RUtfSsXrYu59y+MiIgDjtkz9p3ysaxjf3fD81Ff2xAjdhocJ154aFbfK08siSWvvh8REcedd1CM3nVYS9/a9zbFH3/1ekRETDp8tzjkuAlZxz76i1diy4atUTG4NE674sisvjcrl8eCyuURETHtnP1i1wmjWvo2r6+Ox259NSIixu23U3zytMlZx87+5fxYt3JzRESc/a2js/oWv7IqXn1yaUREHHnqpNhz/7EtfXU19fHgjS9ERAyYGDF9y+YYE7nSFCNaq9pUG0PatIkRTZIYI5qtf39zjG7TJkY0SWIe0Wzdys1RvXBt4mNEZ3lEvvuvWcHHiDxrWrdyc7z+m9cLIkZ0lkfsujL/zzgxYhvPGk122LNG5Fq3cnO888SSZMaIbuQRm9ZvjeGRX1JjhDwi3THirGGZKI5s61ZujtnXz01ujCi0PKLAnzX6I0Z0pJBjxPHVW2JUm/VUbayJP3z0vkpijOhuHtGRQo0R+T4PamhojAc+um5piBGt1dc1ZP3CMokxoit5RHuf4yU5RnQ3j2ht84atMaxNWxJjRGd5xKR2nk2THCMiup9HtJbJRBS1+nMSY0RX8oj23nNJjRER3c8jWtu6pTYGtWlLWowoxDzCs0aTQssjCu1Zw+cRTcSIbcSIJmJEEzGiiRixTW/EiE9namJoZPtwdVU8ef1cMUKMiIj+ixEdESOaJDGP6IgYsY0Y0aSv84h8nwfV1zXG7z56z4kRnjUixIhmAzFGRHQ/jxhoFBACibN1S11UbayJmqq6nL7a6vqo2ljT9IdMJquvvq6hpa+utiHn2KqNNdHYkIlBQ3N/8Va3ddu4mcbscRsbMi199TX1OcdWb67dNqc26mu2jdvYkD1upnHbuHVbc8dt3ofikqKcvrrabWutr2uz1sy2cWurc8etqaprf751jZ3uYUTEkBEVOX1Ze5i91GiobzVunj2s2lQbNVV1Wclfy7g1Da32sDGrr7M9bL42ZRUlHY7bUJ89bmSi1R7m3oc1VfVd2sP6usac/ua+mqrc4qna6lbXpsM9zL021Ztqoq6mIf9aO7y/Ox5360d7mLNH0XQt29vDTKs97Oj+zif7/u5oDwdGjGiI3D2ISFeMyJ5ebqcYES3nSlqM2Pa63OsmRjRJYh7RrKGhsSBiRGd5RL77r2XclMWIiKbrVlOVO98kxojO8oiGhvxrFCO28awRLWvY0c8aLeM3NBZMjOgoj8g05l9f8xyTGCPkESmPEW2rDaLp/Va1saYgYkQh5hGF9qzRHzGiM4UaIxpLcvPlTCYTVZsSHCPa6CyP6Eihxoj2Pg9KU4zI0mbcJMaIruQR7V23JMeIfDrKI1rL9zleEmNEZ3lEe8+mSY4RzfPLHrjjGNGRJMaIruQR7X52ntAYEdH9PKK1fI91SYsRhZhHeNZoUmh5RKE9a/g8IlrOI0Z8NK4Y0XIuMUKMaCZGtBq3F2JEZmhuXtl8/4sRYkTTWP0TIzoiRjRJYh7RITGihRgRLWvoyzyis8/OxQjPGs3nEiMGZoxoHqe1zu7vgUYBISRMZWVlr411wAEH9NpYO9KgoWUxZERFVOT5FzbLB5duS5iKspO50rKSlr6y8twf3ENGVLT7A6ls0LZxi4qzxy0uKWrpK63IDZuDh5Vn/TdrThXbxm2bfBYVbxu3bFDuuM37kC9pLSvfttbSsjZrLdo2bvng3HErhpTlTTqbxirudA+b55Yzp9Z72GbKJaWtxs2zh0OGl0dJaXEMyrOHZRUlrfYwO6ntbA8HDyuPupqGKM2zltbj5iTLRdFqD3PXWjGktEt7WFqWm4Q391UMyZ1v+eBW16bDPcxdz+DhFVFW0ZD3Puz4/u543EHDyqOhvjEq8txLZa3u77Z7WNRqDzu6v/PJvr872sOBESNKthRH5Pm7cWmKEdnTy+0UI6LlXEmLEdtel+c+FCMiIpl5RLOSkuKCiBGd5RHFJUXRzueDqYsREU3XrVBiRGd5RElJ/p9xYsQ2njWiZQ07+lmjZfyS4oKJER3lEUXF+dfXPMckxgh5xMCKERFN77chQysKIkYUYh5RaM8a/REjOlOoMaK4uign5ypq9X4thBjRWR7RkUKNEe19HpSmGJGlzbhJjBFdySPau25JjhHdzSNay/c5XhJjRGd5RHvPpkmOEc3zyx644xjRkSTGiK7kEe1+dp7QGBHR/TyitXyPdUmLEYWYR3jWaFJoeUShPWv4PCJaziNGfDSuGNFyLjFCjGgmRrQatxdiRFEmd5+KS4pjyJAKMUKM+Gis/okRHREjmiQxj+iQGNFCjIiWNfRlHtHZZ+dihGeN5nOJEQMzRjSP01pn9/dAU5TJ989DAn1uxowZMXPmzJz2QntLbm/B47x58+Lyyy/PapszZ05MnTp1u8YFSI1bTopY/nx227hPRlz6eP/MpzeleW1p5roVpjRfN2srXGlfH4UnzfdkmtdGYXJPkjRpvietrTBZW2GytsKU5rVFpHt91gYAAPnJJ0ka92Thcu1IGvck0AsqKytj2rRpWW0DpX5FCSWwXQZCoAQAAAAAAAAAAAAAAIBClPtdlAAAAAAAAAAAAAAAAABAwVNACAAAAAAAAAAAAAAAAAAppIAQAAAAAAAAAAAAAAAAAFJIASEAAAAAAAAAAAAAAAAApJACQgAAAAAAAAAAAAAAAABIIQWEAAAAAAAAAAAAAAAAAJBCCggBAAAAAAAAAAAAAAAAIIUUEAIAAAAAAAAAAAAAAABACikgBAAAAAAAAAAAAAAAAIAUUkAIAAAAAAAAAAAAAAAAACmkgBAAAAAAAAAAAAAAAAAAUkgBIQAAAAAAAAAAAAAAAACkUGl/TwDINnfu3F4db/fdd4/x48f36pgAAAAAAAAAAAAAAABA8ikghISZOnVqr473jW98I374wx/26pgAAAAAAAAAAAAAAABA8hX39wQAAAAAAAAAAAAAAAAAgN5XlMlkMv09CRiIZsyYETNnzuzz8yT9GwgrKytj2rRpWW1z5szp9W9iBAAAAAAAAAAAAAAAYGAayPUrvoEQAAAAAAAAAAAAAAAAAFKotL8nAAPVjBkzYsaMGf09DQAAAAAAAAAAAAAAACClfAMhAAAAAAAAAAAAAAAAAKSQAkIAAAAAAAAAAAAAAAAASCEFhAAAAAAAAAAAAAAAAACQQgoIAQAAAAAAAAAAAAAAACCFFBACAAAAAAAAAAAAAAAAQAopIAQAAAAAAAAAAAAAAACAFFJACAAAAAAAAAAAAAAAAAAppIAQAAAAAAAAAAAAAAAAAFJIASEAAAAAAAAAAAAAAAAApJACQgAAAAAAAAAAAAAAAABIIQWEAAAAAAAAAAAAAAAAAJBCCggBAAAAAAAAAAAAAAAAIIUUEAIAAAAAAAAAAAAAAABACikgBAAAAAAAAAAAAAAAAIAUUkAIAAAAAAAAAAAAAAAAACmkgBAAAAAAAAAAAAAAAAAAUkgBIQAAAAAAAAAAAAAAAACkkAJCAAAAAAAAAAAAAAAAAEghBYQAAAAAAAAAAAAAAAAAkEIKCAEAAAAAAAAAAAAAAAAghRQQAgAAAAAAAAAAAAAAAEAKKSAEAAAAAAAAAAAAAAAAgBRSQAgAAAAAAAAAAAAAAAAAKaSAEAAAAAAAAAAAAAAAAABSSAEhAAAAAAAAAAAAAAAAAKSQAkIAAAAAAAAAAAAAAAAASCEFhAAAAAAAAAAAAAAAAACQQgoIAQAAAAAAAAAAAAAAACCFFBACAAAAAAAAAAAAAAAAQAopIAQAAAAAAAAAAAAAAACAFFJACAAAAAAAAAAAAAAAAAAppIAQAAAAAAAAAAAAAAAAAFJIASEAAAAAAAAAAAAAAAAApJACQgAAAAAAAAAAAAAAAABIIQWEAAAAAAAAAAAAAAAAAJBCCggBAAAAAAAAAAAAAAAAIIUUEAIAAAAAAAAAAAAAAABACikgBAAAAAAAAAAAAAAAAIAUUkAIAAAAAAAAAAAAAAAAACmkgBAAAAAAAAAAAAAAAAAAUkgBIQAAAAAAAAAAAAAAAACkkAJCAAAAAAAAAAAAAAAAAEghBYQAAAAAAAAAAAAAAAAAkEIKCAEAAAAAAAAAAAAAAAAghRQQAgAAAAAAAAAAAAAAAEAKKSAEAAAAAAAAAAAAAAAAgBRSQAgAAAAAAAAAAAAAAAAAKaSAEAAAAAAAAAAAAAAAAABSqLS/JwBpNmPGjJg5c2aXX19WVhYVFRUxaNCg2GmnnWKXXXaJcePGxb777hv77bdfHHXUUTFhwoS+mzAA7Ei3nBSx/PnstnGfjLj08f6ZD6RZmt9v1la40ry+NK8tzdJ83dK8tjRz3Uga92RhSvN1s7bCZG2FydoKV5rXZ20AUFjS/PMtzWtLszRftzSvjcLknoQdy3sOgHYoIIQEqauri7q6uti8eXOsWbMm3nrrrZzXfOxjH4u/+Iu/iC984QtxwgknRHGxLxIFAAAAAAAAAAAAAAAAcqk8ggKzYsWKuPnmm+Pkk0+Oj3/84/HjH/84ampq+ntaAAAAAAAAAAAAAAAAQMIoIIQCtmTJkvjGN74RBx54YPz+97/v7+kAAAAAAAAAAAAAAAAACVLa3xOAgaiysrLdvpqamqiuro7Vq1fHe++9F2+88Ua8/PLLMX/+/MhkMnmPWbRoUZx22mnx93//9/Fv//ZvUVJS0ldTBwAAAAAAAAAAAAAAAAqEAkLoB0cffXS3j1m9enXcc8898fOf/zxefPHFvK+59tprY+XKlXH77bdHcbEvGAUAAAAAAAAAAAAAAICBTIURFIixY8fG5ZdfHi+88EL87ne/iwkTJuR93Z133hl/93d/t2MnBwAAAAAAAAAAAAAAACSOAkIoQKeffnrMmzcvTj/99Lz9P/zhD+O+++7bsZMCAAAAAAAAAAAAAAAAEkUBIRSoYcOGxX333RdnnHFG3v6vf/3rUVVVtYNnBQAAAAAAAAAAAAAAACSFAkIoYCUlJXH33XfHxIkTc/refffduOGGG/phVgAAAAAAAAAAAAAAAEASKCCEAjds2LC48cYb8/bdeOON0dDQsINnBAAAAAAAAAAAAAAAACSBAkJIgVNOOSWOPvronPZ33nknZs2ateMnBAAAAAAAAAAAAAAAAPQ7BYSQEpdddlne9gceeGAHzwQAAAAAAAAAAAAAAABIAgWEkBJnnXVWFBfnvqWfeuqpfpgNAAAAAAAAAAAAAAAA0N8UEEJKjBkzJg477LCc9jfeeCOqq6t3/IQAAAAAAAAAAAAAAACAfqWAEFLk0EMPzWlraGiIt956qx9mAwAAAAAAAAAAAAAAAPSn0v6eANB79ttvv7zt7777bt5vJ+wNlZWV23X8vHnzemkmAAAAAAAAAAAAAAAAQGsKCCFF9thjj7zt7733Xp+dc9q0aX02NgAAAAAAAAAAAAAAANBzCgghRUaNGpW3fcuWLTt2Ittp9i/nx6rKothl/Mj41Of2z+qrvG9BrFq8ISIiTv3aETFoSFlL34qFa+O5B9+OiIiDp4+Pjx+xe9ax9//o2WhsyMSoXYbE8V8+JKvvpUcXxbL5qyMi4oQLDomROw9p6Vv97ofxzG/fjIiIyZ/cIw46dq+sYx+5+aWo3lwbg4eVxymXHZ7VN//pd+Lt55sKOI/5wv4xds+RLX0frqmKJ+94LSIixh80Ng7/9KSsY5+687XY8EFVFJcUxVnfOCqr788vrox5s5dFRMSU0yfHx/bZqaVva1Vd/P5nL0ZExG4TR8XUz2Z/M+Wf/vvN+GDZhxERcfqVR0ZZxbYfBe++uTpe+P2iiIg49IQJMfGw3bKOvff6uRERMWb3YTH93IOy+p5/+O1YvmBtREScfPGhMWz04Ja+95duiDn3LIiIiP2mjov9p47LOvbhn74QNdX1MXTUoPj0Vw7L6ntt1tJY9NKqiIj4H391YOy0x/CWvvXvb45Zd82PiIi9D901Djtx76xjn7j91di4tjpKy0vijL/5ZFbfW8+tiDeeeTciIo4+a5/YfdKYlr6qTTXxh5+/HBERe0weE0edsU/WsU//5vVYs3xTRESc+fUpUVJa3NK3dN778fJjSyIi4hMn7x0TDt61pa+hvjEe+PFzERGx87jhcexfHpg17rO/Wxjvvb0uIiI+89VPxJDhFS19Kxeti7n3L4yIiAOO2TP2nfKxrGN/d8PzUV/bECN2GhwnXnhoVt8rTyyJJa++HxERx513UIzedVhL39r3NsUff/V6RERMOny3OOS4CVnHPvqLV2LLhq1RMbg0TrviyKy+NyuXx4LK5RERMe2c/WLXCaNa+javr47Hbn01IiLG7bdTfPK0yVnHzv7l/Fi3cnNERJz9raOz+ha/sipefXJpREQceeqk2HP/sS19dTX18eCNL0REiBEpihGtVW2qjSFt2sSIJmJEEzGiyfbEiGbrVm6O6oVrEx8jOssj1r+/OUbnXWEKYkSeNa1buTle/83rqYgRu67cHGMiV9piRLN1KzdHyZqqxMeIQssjevVZI3KtW7k53nliSTJjRDfyiE3rt8bwyC+pMUIeEVFX0xBl0T4xoonPI5rsiGeNU4pro+2T3LpVm2P29XPFiAQ/axxfvSVGRbaqjTXxh4/eV2mIER0p1BgxfUturtzQ0BgPfHTdkhgjuptHtFZf15D1C8tCjRH5rltEsmNEd/OI1jZv2BrD2rQlMUZ0lkdMaufZNMkxIqL7eURrmUxEUas/JzFGdCWPaO89l9QYEdH9PKK1rVtqY1CbtqTFiELMIzxrNCm0PMKzRpNCyyPEiG0GbIyIXOtWNn2uUOgxoqG+MUryrK+ZGNEkiTGiI4UcIz6dqYmhbdbz4eqqePL6ucmNEfKIiEh/jOhIEmOEPKKJGNGk0GJEZ5IYIwotjxAjmogRTQotRhRiHtFXMWKgUUAIKTJ4cP5ijOrq6h08k+2zdUtdVG2siZqqupy+2ur6qNpY0/SHTCarr76uoaWvrrYh59iqjTXR2JCJQUNzf/FWt3XbuJnG7HEbGzItffU19TnHVm+u3TanNuprto3b2JA9bqZx27h1W3PHbd6H4pKinL662m1rra9rs9bMtnFrq3PHramqa3++dY2d7mFExJARFTl9WXuYvdRoqG81bp49rNpUGzVVdVnJX8u4NQ2t9rAxq6+zPWy+NmUVuR/Vth63oT573MhEqz3MvQ9rquq7tIf1dY05/c19NVW579fa6lbXpsM9zL021Ztqmv5yab61dnh/dzzu1o/2MGePoulatreHmVZ72NH9nU/2/d3RHooRaYkR2dPL7RQjouVcYoQY0Wx7YkSzhobGgogRneURbfcma9yUxYiIputWU5U730KMEQ0N+deYthjRrKGhMYoLIEYUWh7RV88aLeM3NBZMjOgoj8g05l9f8xyTGCPkERGZtgG9DTEiWtbg84gd86yRGZF7Tzb/LBMjkvus0ViSe90ymUxUbUpPjOhIocaIhsj/szvJMaK7eUSWNuMWaoxo77olOUbk01Ee0Vq+z/GSGCM6yyPaezZNcoxonl/2wB3HiI4kMUZ0JY9o7z2X1BgR0f08orV8j3VJixGFmEd41mhSaHmEZ434aKzCyiPEiFbjihEtGprfswUeIzojRkTL65MWIzpSyDEiMzTf53iNBRUj5BEfjZuyGNGRJMYIeUTuuGJEYcWIjiQxRhRaHiFG5I4rRhRWjCi0PKKvYsRAo4AQUqSxnb8QWFTU/l8cT6JBQ8tiyIiKqMjzL2yWDy7dljC1WVdpWUlLX1l57g/uISMq2v2BVDZo27hFxdnjFpcUtfSVVuSGzcHDyrP+mzWnim3jtk0+i4q3jVs2KHfc5n3Il7SWlW9ba2lZm7UWbRu3fHDuuBVDyvImnU1jFXe6h81zy5lT6z1sM+WS0lbj5tnDIcPLo6S0OAbl2cOyipJWe5id1Ha2h4OHlUddTUOU5llL63FzkuWiaLWHuWutGFLapT0sLctNwpv7Kobkzrd8cKtr0+Ee5q5n8PCKKKtoyHsfdnx/dzzuoGHl0VDfGBV57qWyVvd32z0sarWHHd3f+WTf3x3toRiRlhiRPb3cTjEiWs4lRogRzbYnRjQrKSkuiBjRWR5RXFIU7fx9sdTFiIim65aWGFFSUhyR5+9/py1GNCspKS6IGFFoeURfPWu0jF9SXDAxoqM8oqg4//qa55jEGCGPiChqG9DbECOiZQ0+j9gxzxpt79GIj36WDakQIxL8rFFcXZSTcxW1er+mIUZ0pFBjRMmW/LlykmNEd/OILG3GLdQY0d51S3KM6G4e0Vq+z/GSGCM6yyPaezZNcoxonl/2wB3HiI4kMUZ0JY9o7z2X1BgR0f08orV8j3VJixGFmEd41mhSaHmEZ434aKzCyiPEiFbjDtQYsTH3+JKS4hgytKLgY0RnxIhoeX3SYkRHCjlGFGXyfY5XHEOGVCQ3RrQhj/ho3JTFiI4kMUbII3LHFSMKK0Z0JIkxotDyCDEid1wxorBiRKHlEX0VIwaaoky+fx4S6BUzZsyImTNn5rT31dvuwQcfjDPOOCOn/frrr4+rrrqqT85ZWVm5XcfPmzcvLr/88qy2OXPmxNSpU7drXAAKwC0nRSx/Prtt3CcjLn28f+YDaZbm95u1Fa40ry/Na0uzNF+3NK8tzVw3ksY9WZjSfN2srTBZW2GytsKV5vVZGwAUljT/fEvz2tIszdctzWujMLknYcfyngPoUGVlZUybNi2rbaDUryihhBRZu3Zt3vZhw4b12TkHQqAEAAAAAAAAAAAAAACAQtS976sFEm3lypV52/fYY48dPBMAAAAAAAAAAAAAAACgvykghBRZsGBB3vY999xzB88EAAAAAAAAAAAAAAAA6G8KCCFFXnnllZy2srKy2HfffXf8ZAAAAAAAAAAAAAAAAIB+pYAQUmLNmjXx2muv5bQfeOCBUVFR0Q8zAgAAAAAAAAAAAAAAAPqTAkJIifvuuy8ymUxO+wknnNAPswEAAAAAAAAAAAAAAAD6mwJCSImbb745b/uZZ565g2cCAAAAAAAAAAAAAAAAJIECQkiBhx56KJ5//vmc9okTJ8axxx7bDzMCAAAAAAAAAAAAAAAA+psCQihwmzZtir/5m7/J2/e3f/u3UVzsbQ4AAAAAAAAAAAAAAAADkcoiKGD19fVx7rnnxtKlS3P69t5777jiiit2/KQAAAAAAAAAAAAAAACARFBACAVq06ZNcdZZZ8VDDz2U01dUVBQ33HBDVFRU9MPMAAAAAAAAAAAAAAAAgCRQQAgF6He/+10cfPDB8fDDD+ft//a3vx2nnXbaDp4VAAAAAAAAAAAAAAAAkCSl/T0BoGtWr14d99xzT9x8883x0ksvtfu6r3zlK/Fv//ZvO3BmAAAAAAAAAAAAAAAAQBIpIIR+MHfu3Hb7amtrY+vWrbF69epYsWJFvPnmm/HSSy/FvHnzIpPJtHtcUVFR/OM//mP8z//5P6OoqKgvpg0AAAAAAAAAAAAAAAAUEAWE0A+mTp3aq+NNnjw5brzxxjj55JN7dVwAAAAAAAAAAAAAAACgcCkghAI2adKkuOqqq+KrX/1qlJeX9/d0AAAAAAAAAAAAAAAAgAQpymQymf6eBKTVjBkzYubMmb065p577hmnnXZafOELX4jjjz8+iouLe3X8Ha2ysjKmTZuW1TZnzpxe/5ZGAAAAAAAAAAAAAAAABqaBXL/iGwghQUpLS6OioiIGDRoUO+20U+yyyy4xbty42HfffWP//fePo48+OsaPH9/f0wQAAAAAAAAAAAAAAAAKgAJC6EMzZsyIGTNm9Pc0AAAAAAAAAAAAAAAAgAGouL8nAAAAAAAAAAAAAAAAAAD0PgWEAAAAAAAAAAAAAAAAAJBCCggBAAAAAAAAAAAAAAAAIIUUEAIAAAAAAAAAAAAAAABACikgBAAAAAAAAAAAAAAAAIAUUkAIAAAAAAAAAAAAAAAAACmkgBAAAAAAAAAAAAAAAAAAUkgBIQAAAAAAAAAAAAAAAACkkAJCAAAAAAAAAAAAAAAAAEghBYQAAAAAAAAAAAAAAAAAkEIKCAEAAAAAAAAAAAAAAAAghRQQAgAAAAAAAAAAAAAAAEAKKSAEAAAAAAAAAAAAAAAAgBRSQAgAAAAAAAAAAAAAAAAAKaSAEAAAAAAAAAAAAAAAAABSSAEhAAAAAAAAAAAAAAAAAKSQAkIAAAAAAAAAAAAAAAAASCEFhAAAAAAAAAAAAAAAAACQQgoIAQAAAAAAAAAAAAAAACCFFBACAAAAAAAAAAAAAAAAQAopIAQAAAAAAAAAAAAAAACAFFJACAAAAAAAAAAAAAAAAAAppIAQAAAAAAAAAAAAAAAAAFJIASEAAAAAAAAAAAAAAAAApJACQgAAAAAAAAAAAAAAAABIIQWEAAAAAAAAAAAAAAAAAJBCCggBAAAAAAAAAAAAAAAAIIUUEAIAAAAAAAAAAAAAAABACikgBAAAAAAAAAAAAAAAAIAUUkAIAAAAAAAAAAAAAAAAACmkgBAAAAAAAAAAAAAAAAAAUkgBIQAAAAAAAAAAAAAAAACkkAJCAAAAAAAAAAAAAAAAAEghBYQAAAAAAAAAAAAAAAAAkEIKCAEAAAAAAAAAAAAAAAAghRQQAgAAAAAAAAAAAAAAAEAKKSAEAAAAAAAAAAAAAAAAgBRSQAgAAAAAAAAAAAAAAAAAKaSAEAAAAAAAAAAAAAAAAABSSAEhAAAAAAAAAAAAAAAAAKSQAkIAAAAAAAAAAAAAAAAASCEFhAAAAAAAAAAAAAAAAACQQgoIAQAAAAAAAAAAAAAAACCFFBACAAAAAAAAAAAAAAAAQAopIAQAAAAAAAAAAAAAAACAFFJACAAAAAAAAAAAAAAAAAApVNrfEwDat3jx4li0aFG88847sXHjxqiqqory8vIYNWpUjB49Onbdddc49NBDY8SIEf09VQAAAAAAAAAAAAAAACBhFBBCgqxfvz7uv//+uPfee+NPf/pTrF27ttNjioqKYt99940pU6bEOeecE6eeemqUl5fvgNkCJMgtJ0Usfz67bdwnIy59vH/mQ9e4boXJdSNp3JMkkfuyMLluAB1Lc5y0tsJkbYXJ2gqTtRWuNK/P2gpTmtdGYXJPAr1BLAHomDhZuFy7wpTm65bmtQHsAAoIIQHeeeed+N//+3/HbbfdFlVVVd06NpPJxIIFC2LBggVxxx13xJgxY+KLX/xiXH311TFx4sQ+mjEAAAAAAAAAAAAAAACQdMX9PQEYyOrr6+Nf//VfY7/99ouf/OQn3S4ezGfdunXx05/+NPbff//45je/GWvWrOmFmQIAAAAAAAAAAAAAAACFxjcQQj9ZuXJlfPGLX4ynn36609eOHTs29tprrxg+fHiUlJTE5s2b47333osVK1ZEY2Nj3mNqa2vjRz/6UcybNy+eeOKJ3p4+AAAAAAAAAAAAAAAAkHAKCKEfLF68OE466aRYsmRJ3v7BgwfH5z//+TjnnHPimGOOiZ133jnv66qqqmLu3Lnx6KOPxq9+9atYtmxZzmsaGhp6de4AAAAAAAAAAAAAAABAYSju7wnAQPPBBx/ECSeckLd4sKSkJL75zW/GsmXL4o477ojPfvaz7RYPRkQMGTIkTjjhhPjBD34QS5Ysifvvvz+mTJnSl9MHAAAAAAAAAAAAAAAACoQCQtiB6uvr46yzzsr7TYG77757PP300/Ef//EfMXbs2G6PXVRUFGeeeWbMnTs3br/99hgzZkxvTBkAAAAAAAAAAAAAAAAoUAoIYQf613/915g7d25O+7hx4+KZZ56JqVOnbvc5ioqK4oILLohXX301jjnmmO0eDwAAAAAAAAAAAAAAAChMCghhB1m0aFH8r//1v3LaS0pK4r//+79j4sSJvXq+cePGxRNPPBHnnntur44LAAAAAAAAAAAAAAAAFAYFhLCDfO9734u6urqc9n/4h3+IKVOm9Mk5y8vL4/LLL++TsQEAAAAAAAAAAAAAAIBkU0AIO8CKFSviN7/5TU77hAkT4pprrumHGQEAAAAAAAAAAAAAAABpp4AQdoBf/OIX0dDQkNN+2WWXRVlZWT/MCAAAAAAAAAAAAAAAAEg7BYSwA9xzzz05bWVlZXHJJZf0w2wAAAAAAAAAAAAAAACAgUABIfSxlStXxiuvvJLTftxxx8Uuu+yy4ycEAAAAAAAAAAAAAAAADAgKCKGPPfvss3nbp0z5/+zdeZRdVZko8K/mpDIyRwQEIsg8ZAASgYAigoI02oJAQ5p+AiLd9upe2t22+gTfWs/1FjYt3Wprt49gHojStoAM0jJIAFNAIAwJswkzCUNChkpVarzvj0oNt86tW1Wkqu65p36/tXrZ2fueffbe59yvvnPClzpqjGcCAAAAAAAAAAAAAAAAjCcKCGGUPf744wXb586dO8YzAQAAAAAAAAAAAAAAAMaT6lJPALJu9erVBduPPPLIMZ7J6GhoaNiu41esWDFCMwEAAAAAAAAAAAAAAAD6UkAIo+z1118v2L7zzjuP8UxGx/z580s9BQAAAAAAAAAAAAAAAKAABYQwyt57771EW01NTdTX15dgNuVhyQ0rY21DRez6oWnx0c8dmNfXcPNzsXb1hoiIOPVLs2NCfU1P3xsvrItHbnsxIiIOXfCh+PDsD+Qde8vVD0dnRy6m71ofJ/7ZYXl9y3+3Kl5Z+U5ERHzsgsNi2s691+ed1zbGg//5bERE7Dd39zjkuL3yjr3z35dHc2NrTJxcG6dcPCuvb+UDr8aLy96MiIhjP39g7LLntJ6+je82xb2Ln4qIiA8dskvMOnlm3rG/v+6p2PB2U1RWVcQZf310Xt8fH1sTK5a8EhERR522X3xw/516+rY2tcVvf/xYRETM2Hd6zPuTA/KO/cN/PRtvv7IxIiJOu2xO1NT1/ih47dl34tHfroqIiMM/tnfse8SMvGNvuuqhiIjY8QOTY8E5h+T1LbvjxXj9uXUREfGJCw+PyTtM7Ol76+UNsfTXz0VExAHz9ogD5+2Rd+wd//ZotDS3x6TpE+Lkvzgir++p+16OVcvXRkTE8V84OHbafUpP33tvNcZ916+MiIh9Dt8tjvj4PnnH3vOzJ2PTuuaorq2K0/9ybl7f84+8Ec88+FpERBxzxv7xgZk79vQ1bW6J//6PxyMiYvf9doyjT98/79gHbnw63n19c0REfOYrR0VVdWVP38sr3orH73opIiKO/MQ+sfehu/X0dbR3xm/+5ZGIiNh5jylx3FkH54378K0vxJsvro+IiE9edGTUT6nr6Vuzan08dMsLERFx0LF7xkeO+mDesbf+YFm0t3bE1J0mxscXHp7X98Q9L8VLT74VEREnnHdI7LDb5J6+dW9ujvt/8XRERMycNSMOO2HvvGN/d80TsWXD1qibWB2funROXt+zDa/Hcw1dRdLzP3tA7Lb39J6+xvea465FT0ZExB4H7BRzP7Vf3rFLblgZ69c0RkTEmX97TF7f6ifWxpP3vhwREXNOnRl7HrhLT19bS3vc9sNHIyIKxoi+OjtzUdnnz2JElzTGiL6aNrdG/5+QYkSXNMaIbu+91Rg79GtLY4yQR3QptxgxWB5R6P7rJkZ0kUd0KVWM6LZ+TWNUvdskRkSKnzUiaf2axnj1npfECDFCHrHNuI4R8og4pbI1+j/JrV/bGEuueigTMaKYco4RJzZvien91tO0qSX+e9v3KgsxophyjRELtjTGjpGvo6MzfrPtuqUxRgw3j+irva0j7y8s0xgjhpJHFLpuEemOEcPNI/pq3LA1JvdrS2OMGCyPmLmm8HVLc4yIGH4e0VcuF1HR589pjBFDySMG+s6lNUZEDD+P6GvrltaY0K8tbTFiKHnE4QN859IaI8oxj4gov2eNtLyP6LZ+TWO0vbwh9TGi3PKIcnzWECO6iBFdiuURHe2dURUDEyO6iBFdxIgu4ylGyCOGRozoksYYUYwY0SttMWIwaYwRQ8kjCr0Pam/rjFu3fefECHlEhBjRLWt5xGg9a4w3CghhlDU3Nyfapk0r/JetdNm6pS2aNrVES1Nboq+1uT2aNrV0/SGXy+trb+vo6Wtr7Ugc27SpJTo7cjFhUvIv3tq29o6b68wft7Mj19PX3tKeOLa5sbV3Tv20t/SO29mRP26us3fctq3Jcbv3obKqItHX1tq71va2fmvN9Y7b2pwct6WpbeD5tnUOuocREfVT6xJ9eXuYv9ToaO8zboE9bNrcGi1NbXnJX8+4LR199rAzr2+wPey+NjV1yVe1fcftaM8fN3LRZw+T92FLU/uQ9rC9rTPR393X0pQsnmpt7nNtiu5h8to0b26JtpaOwmsten8XH3frtj1M7FF0XcuB9jDXZw+L3d+F5N/fxfYweW3yJ5H/RzGie+D0xYj86SU7xYjoOVfaYkTv55LXLY0xQh4RPesrpxgxWB5R6P7rGVeM6JmjPKJLKWJEt46OzqgUI3rO0V/anjV6xu/oFCPEiIiQR/TMV4zoOs84zSNyU5N5V/d9moUYMZhyjRGdVcnrlsvlomlzdmJEMeUaIzqicG6S5hgx3DwiT79x0xgjhpJHDHTd0hwjCimWR/RV6D1eGmPEYHlEx0DPAimOEd3zyx+4eIwoJo0xYih5xEDfubTGiIjh5xF9dRZYbtpixFDyiIG+c2mNEeWYR3TPL3/gbOURo/Ws0TO3js6yiBHllkeU47OGGNFFjNg2bpE8YjBiRPR8XowQI/oaLzFCHjE0YkSXNMaIosSIHmmMEcWkMUYMJY8Y7N25GCGP6D6XGJG9PGK0njXGGwWEMMra25OBpq4u+QOfXhMm1UT91LqoK/AvbNZOrO5NmCryk7nqmqqevpra5A/u+ql1A/5AqpnQO25FZf64lVUVPX3VdcmwOXFybd7/5s2prnfc/slnRWXvuDUTkuN270OhpLWmtnet1TX91lrRO27txOS4dfU1BZPOrrEqB93D7rkl5tR3D/tNuaq6z7gF9rB+Sm1UVVfGhAJ7WFNX1WcP85PawfZw4uTaaGvpiOoCa+k7biJZrog+e5hca1199ZD2sLommYR399XVJ+dbO7HPtSm6h8n1TJxSFzV1HQXvw+L3d/FxJ0yujY72zqgrcC/V9Lm/++9hRZ89LHZ/F5J/fxfbw4H/A/2uSeT/UYzoHjh9MSJ/eslOMSJ6zpW2GNH7uQL3YQpjhDwietZXTjFisDyisqoiBng/KEZsI4/oVYoY0a2qqlKMKKNnjZ7xqyrFCDEiIuQRPfMVI7rOM07ziP73aMS2+7S+LhMxYjDlGiMqmysi+v3dXUWf72sWYkQx5RojqrZUJq5bRLpjxHDziDz9xk1jjBhKHjHQdUtzjBhuHtFXofd4aYwRg+URVVWFr1uaY0T3/PIHLh4jikljjBhKHjHQdy6tMSJi+HlEX5UFHlvTFiOGkkcM9J1La4woxzyie375A2crjxitZ42euVVVRmcZxIhyyyPK8VlDjOgiRmwbt0geMRgxIno+L0aIEX2NlxghjxgaMaJLGmNEUWJEjzTGiGLSGCOGkkcM9u5cjJBHdJ9LjMheHjFazxrjTUWu0D8PCYyYgw8+OJ555pm8tsmTJ8fmzZtLNKOR1dDQsF3Hr1ixIi655JK8tqVLl8a8efO2a1xgnPnpSRGvL8tv22NuxBfvLs18GBrXrTy5bqSNe5I0cl+WJ9cNoLgsx0lrK0/WVp6srTxZW/nK8vqsrTxleW2UJ/ckMBLEEoDixMny5dqVpyxftyyvDRgzDQ0NMX/+/Ly28VK/ooQSRtmkSZMSbY2NjdHR0RFVVcP81zpSaDwESgAAAAAAAAAAAAAAAChHw/t9tcCwzZgxo2D7xo0bx3gmAAAAAAAAAAAAAAAAwHiigBBG2Z577lmw/aWXXhrjmQAAAAAAAAAAAAAAAADjiQJCGGUHH3xwwfZHHnlkjGcCAAAAAAAAAAAAAAAAjCcKCGGUzZ49u2D7smXLxngmAAAAAAAAAAAAAAAAwHiigBBG2axZs2LatGmJ9iVLlkQulyvBjAAAAAAAAAAAAAAAAIDxQAEhjLKampr45Cc/mWhfvXp13HPPPSWYEQAAAAAAAAAAAAAAADAeKCCEMXD++ecXbP/xj388xjMBAAAAAAAAAAAAAAAAxgsFhDAGTj311Nhrr70S7bfccks8/vjjJZgRAAAAAAAAAAAAAAAAkHUKCGEMVFVVxbe+9a1Ee3t7e1xwwQXR0tIyaudet27dqI0NAAAAAAAAAAAAAAAApJcCQhgjF154YRx22GGJ9pUrV8bXvva1UTnnbbfdFn/+538+KmMDAAAAAAAAAAAAAAAA6aaAEMZIVVVVLF68OGpqahJ9//qv/xr/8A//ELlcbkTO1draGn/3d38Xn/nMZ2Lz5s0jMiYAAAAAAAAAAAAAAABQXhQQwhg6/PDD44c//GHBvv/zf/5PnH766fHGG29s1znuuOOOOPTQQ+PKK68csYJEAAAAAAAAAAAAAAAAoPwoIIQxdtFFF8W3vvWtgn233357HHDAAfG1r30tVq9ePeQxN23aFNdee23Mnj07Pv3pT8cLL7wwUtMFAAAAAAAAAAAAAAAAylR1qScA49F3vvOdmDRpUnz9619P/JbAxsbG+N73vhff+9734ogjjohjjz02DjrooNhrr71iypQpUVVVFVu2bIk333wznn/++WhoaIiHHnooWlpaSrQaAAAAAAAAAAAAAAAAII0UEEKJ/P3f/30cdthhsXDhwnjnnXcKfuaJJ56IJ5544n2fY+rUqXH22We/7+MBAAAAAAAAAAAAAACA8lWR6//rz4AxtX79+vjWt74V//Ef/xFtbW0jMmZdXV186Utfim9+85ux8847j8iYo6WhoSHmz5+f17Z06dKYN29eiWYEAAAAAAAAAAAAAABAlozn+pXKUk8Axrsdd9wxfvjDH8bq1avjH/7hH2KvvfZ632MdddRR8YMf/CDeeOON+P73v5/64kEAAAAAAAAAAAAAAABg9FSXegJAlz322CO++93vxne/+91Yvnx5PPjgg7Fs2bJYtWpVvPrqq7Fx48Zobm6O2tra2GGHHWKHHXaIGTNmxKxZs2Lu3Llx9NFHb1fxIQAAAAAAAAAAAAAAAJAtCgghhWbNmhWzZs0q9TQAAAAAAAAAAAAAAACAMlZZ6gkAAAAAAAAAAAAAAAAAACNPASEAAAAAAAAAAAAAAAAAZJACQgAAAAAAAAAAAAAAAADIIAWEAAAAAAAAAAAAAAAAAJBBCggBAAAAAAAAAAAAAAAAIIMUEAIAAAAAAAAAAAAAAABABikgBAAAAAAAAAAAAAAAAIAMUkAIAAAAAAAAAAAAAAAAABmkgBAAAAAAAAAAAAAAAAAAMkgBIQAAAAAAAAAAAAAAAABkkAJCAAAAAAAAAAAAAAAAAMggBYQAAAAAAAAAAAAAAAAAkEEKCAEAAAAAAAAAAAAAAAAggxQQAgAAAAAAAAAAAAAAAEAGKSAEAAAAAAAAAAAAAAAAgAxSQAgAAAAAAAAAAAAAAAAAGaSAEAAAAAAAAAAAAAAAAAAySAEhAAAAAAAAAAAAAAAAAGSQAkIAAAAAAAAAAAAAAAAAyCAFhAAAAAAAAAAAAAAAAACQQQoIAQAAAAAAAAAAAAAAACCDFBACAAAAAAAAAAAAAAAAQAYpIAQAAAAAAAAAAAAAAACADFJACAAAAAAAAAAAAAAAAAAZpIAQAAAAAAAAAAAAAAAAADJIASEAAAAAAAAAAAAAAAAAZJACQgAAAAAAAAAAAAAAAADIIAWEAAAAAAAAAAAAAAAAAJBBCggBAAAAAAAAAAAAAAAAIIMUEAIAAAAAAAAAAAAAAABABikgBAAAAAAAAAAAAAAAAIAMUkAIAAAAAAAAAAAAAAAAABmkgBAAAAAAAAAAAAAAAAAAMkgBIQAAAAAAAAAAAAAAAABkkAJCAAAAAAAAAAAAAAAAAMggBYQAAAAAAAAAAAAAAAAAkEEKCAEAAAAAAAAAAAAAAAAggxQQAgAAAAAAAAAAAAAAAEAGKSAEAAAAAAAAAAAAAAAAgAxSQAgAAAAAAAAAAAAAAAAAGaSAEAAAAAAAAAAAAAAAAAAySAEhAAAAAAAAAAAAAAAAAGSQAkIAAAAAAAAAAAAAAAAAyCAFhAAAAAAAAAAAAAAAAACQQQoIAQAAAAAAAAAAAAAAACCDFBACAAAAAAAAAAAAAAAAQAYpIAQAAAAAAAAAAAAAAACADKou9QRgPLn88svjiiuuGPZxlZWVMXny5Jg2bVrsvPPOceihh8YRRxwRJ598chx88MGjMFMAUuOnJ0W8viy/bY+5EV+8uzTzGUlZXluWuW6kjXuyfLl2AMWJk+Upy9fN2sqTtZUnaytP1laesry2iGyvz9pIG9cNGAlZjiXWBmPHPUnauCdhbGX5O5fltQGMAQWEUAY6Oztj06ZNsWnTpnjttdfi8ccfj8WLF0dExOzZs+Ov//qv4/zzzy/xLAEAAAAAAAAAAAAAAIA0qSz1BIDt89hjj8UFF1wQxx9/fLzyyiulng4AAAAAAAAAAAAAAACQEgoIISMeeOCBOP7442PVqlWlngoAAAAAAAAAAAAAAACQAtWlngAQ0dDQULS/ra0tNm3aFC+//HIsX748brnllli3bl3ic6+++mqcdtpp8eSTT0Ztbe1oTRcAAAAAAAAAAAAAAAAoAwoIIQWOOeaYYX3+xz/+cVx99dXxzW9+M1paWvL6nnvuubjyyivjG9/4xkhOEQAAAAAAAAAAAAAAACgzlaWeADB8NTU18dWvfjV+9atfRUVFRaL/Jz/5SQlmBQAAAAAAAAAAAAAAAKSJAkIoY6eddlqce+65ifbXXnstli9fXoIZAQAAAAAAAAAAAAAAAGmhgBDK3Pnnn1+w/dlnnx3jmQAAAAAAAAAAAAAAAABpooAQytyRRx5ZsH3t2rVjPBMAAAAAAAAAAAAAAAAgTRQQQpnbYYcdCra3tbWN8UwAAAAAAAAAAAAAAACANFFACGVuw4YNBdsHKiwEAAAAAAAAAAAAAAAAxgcFhFDmnnjiiYLtBx100NhOBAAAAAAAAAAAAAAAAEgVBYRQ5q677rpE26RJk2L27NklmA0AAAAAAAAAAAAAAACQFgoIoYzdeeedBQsIzz333Kivry/BjAAAAAAAAAAAAAAAAIC0UEAIZai9vT2+//3vx5lnnhmdnZ15fdOnT4/vfOc7JZoZAAAAAAAAAAAAAAAAkBbVpZ4AEPHQQw8V7W9ra4vGxsZ4+eWXY/ny5XHLLbfEO++8k/jcpEmT4pZbbokZM2aM1lQTGhoatuv4FStWjNBMAAAAAAAAAAAAAAAAgL4UEEIKzJs3b7vHOOmkk+KHP/xh7L///iMwo6GbP3/+mJ4PAAAAAAAAAAAAAAAAGBoFhFDG6urq4uKLL44vfelLcdBBB5V6OiNmyQ0rY21DRez6oWnx0c8dmNfXcPNzsXb1hoiIOPVLs2NCfU1P3xsvrItHbnsxIiIOXfCh+PDsD+Qde8vVD0dnRy6m71ofJ/7ZYXl9y3+3Kl5Z2fVbHT92wWExbef6nr53XtsYD/7nsxERsd/c3eOQ4/bKO/bOf18ezY2tMXFybZxy8ay8vpUPvBovLnszIiKO/fyBscue03r6Nr7bFPcufioiIj50yC4x6+SZecf+/rqnYsPbTVFZVRFn/PXReX1/fGxNrFjySkREHHXafvHB/Xfq6dva1Ba//fFjERExY9/pMe9PDsg79g//9Wy8/crGiIg47bI5UVPX+6PgtWffiUd/uyoiIg7/2N6x7xH5v83ypqu6flvmjh+YHAvOOSSvb9kdL8brz62LiIhPXHh4TN5hYk/fWy9viKW/fi4iIg6Yt0ccOG+PvGPv+LdHo6W5PSZNnxAn/8UReX1P3fdyrFq+NiIijv/CwbHT7lN6+t57qzHuu35lRETsc/huccTH98k79p6fPRmb1jVHdW1VnP6Xc/P6nn/kjXjmwdciIuKYM/aPD8zcsaevaXNL/Pd/PB4REbvvt2McfXp+Ye4DNz4d776+OSIiPvOVo6KqurKn7+UVb8Xjd70UERFHfmKf2PvQ3Xr6Oto74zf/8khEROy8x5Q47qyD88Z9+NYX4s0X10dExCcvOjLqp9T19K1ZtT4euuWFiIg46Ng94yNHfTDv2Ft/sCzaWzti6k4T4+MLD8/re+Kel+KlJ9+KiIgTzjskdthtck/fujc3x/2/eDoiImbOmhGHnbB33rG/u+aJ2LJha9RNrI5PXTonr+/ZhtfjuYbXIyJi/mcPiN32nt7T1/hec9y16MmIiNjjgJ1i7qf2yzt2yQ0rY/2axoiIOPNvj8nrW/3E2njy3pcjImLOqTNjzwN36elra2mP2374aETEuIkRC7Y0xo6RlKUY0VfT5tao79cmRnRJY4zo9t5bjbFDvzYxoos8otdo5RGF7r9uYkSXtOYRu60p/DNOjOglRnTxrNFlvMUIeUREW0tH1MTAxIguaYwRxZRzjDilsjX6P8mtX9sYS656KBMxopg0xoih5hEnNm+J6f3W07SpJf572/cqCzGimDTGiKHkEYXeB3V0dMZvtl23NMaI4eYRfbW3deT9hWUaY8RQ8oiB3uOlOUYMN4/oq3HD1pjcry2NMWKwPGLmAM+maY4REcPPI/rK5SIq+vw5jTFiKHnEQN+5tMaIiOHnEX1t3dIaE/q1pS1GlGMeMVrPGt02vJ3MxdIYI8otjyi3Z41yex8hRvQqxfuILZtaYlIUVvYxosCa1q/peq9Q7jGio70zqgqsr5sY0UWM6DIWzxon55KxZOM7TXHvVQ+lN0bIIyIi+zGiGDGiS9beR4gRXUoRIwaTxhgxlDyi0Pug9rbOuHXbd06MECMixIhuWcsjRutZY7xRQAhlrKWlJf71X/81fv/738df/dVfxQUXXBATJvT/q6Pys3VLWzRtaomWprZEX2tzezRtaun6Qy6X19fe1tHT19bakTi2aVNLdHbkYsKk5F+8tW3tHTfXmT9uZ0eup6+9pT1xbHNja++c+mlv6R23syN/3Fxn77htW5Pjdu9DZVVFoq+ttXet7W391prrHbe1OTluS1PbwPNt6xx0DyMi6qfWJfry9jB/qdHR3mfcAnvYtLk1Wpra8pK/nnFbOvrsYWde32B72H1tauqSr2r7jtvRnj9u5KLPHibvw5am9iHtYXtbZ6K/u6+lKVk81drc59oU3cPktWne3NL1H5cWWmvR+7v4uFu37WFij6LrWg60h7k+e1js/i4k//4utofjI0Z0RHIPIrIVI/Knl+wUI6LnXGmLEb2fS143MaKLPKLXaOURhe6/nnHFiJ45pjGP6Ogo/DNOjOglRkTPGjxrjL8YIY+IyPW/WP2IEdGzhrTFiGLKOUbkpibvye6fZVmIEYNJW4wYah7RWZW8brlcLpo2ZydGFJPGGDGUPGKg90FpjhHDzSPy9Bs3jTFiKHnEQNctzTGikGJ5RF+F3uOlMUYMlkcM9Gya5hjRPb/8gYvHiGLSGCOGkkcM+O48pTEiYvh5RF+dBZabthhRjnnEaD1rdCv87jx9MaLc8ohye9Yot/cRYkSvUryP6H89+vdlKUZEdP1DKU2bWso+RgxGjIiez4sRY/OskZtU6D1eZ1nFCHnEtnEzFiOKESO6ZO19hBixbdwSxYhi0hgjhpJHDPbuXIwQI7rPJUZkL48YrWeN8UYBIWTAypUr45JLLokrr7wyFi9eHPPmzSv1lLbLhEk1UT+1LuoK/AubtROrexOmivxkrrqmqqevpjb5g7t+at2AP5BqJvSOW1GZP25lVUVPX3VdMmxOnFyb9795c6rrHbd/8llR2TtuzYTkuN37UChprantXWt1Tb+1VvSOWzsxOW5dfU3BpLNrrMpB97B7bok59d3DflOuqu4zboE9rJ9SG1XVlTGhwB7W1FX12cP8pHawPZw4uTbaWjqiusBa+o6bSJYros8eJtdaV189pD2srkkm4d19dfXJ+dZO7HNtiu5hcj0Tp9RFTV1Hwfuw+P1dfNwJk2ujo70z6grcSzV97u/+e1jRZw+L3d+F5N/fxfZwfMSIqi2VEQX+27gsxYj86SU7xYjoOVfaYkTv5wrch2JERMgj+hqtPKKyqiIGeD8oRmyT1jyiqqrwzzgxopcYET1r8Kwx/mKEPCKiov/F6keMiJ41pC1GFFPOMaL/PRqx7WdZfV0mYsRg0hYjhppHVDZXJHKuij7f1yzEiGLSGCOGkkcM9D4ozTFiuHlEnn7jpjFGDCWPGOi6pTlGDDeP6KvQe7w0xojB8oiBnk3THCO655c/cPEYUUwaY8RQ8ogB352nNEZEDD+P6KsyOWzqYkQ55hGj9azRrfC78/TFiHLLI8rtWaPc3keIEb1K8T6i0LN3376yjhGbksdXVVVG/aS6so8RgxEjoufzYsTYPGtU5Aq9x6uM+vq69MaIfuQR28bNWIwoRozokrX3EWLEtnFLFCOKSWOMGEoeMdi7czFCjOg+lxiRvTxitJ41xpuKXKF/HhIYFZdffnlcccUVifahfA2bmppi06ZNsWrVqnjsscfixhtvjD/84Q+Jz9XU1MQvfvGL+OxnPzsicx5MQ0PDdh2/YsWKuOSSS/Lali5dWvZFkAAj5qcnRby+LL9tj7kRX7y7NPMZSVleW5a5bqSNe7J8uXYAxYmT5SnL183aypO1lSdrK0/WVp6yvLaIbK/P2kgb1w0YCVmOJdYGY8c9Sdq4J2FsZfk7l+W1AWOmoaEh5s+fn9c2XupXlFBCmaivr4/6+vqYMWNGfPSjH42vfOUrcf/998eFF14Yq1ev7vlcW1tbnH322bFkyZJEYBsN4yFQAgAAAAAAAAAAAAAAQDka3u+rBVLl+OOPj/vuuy8++MEP5rW3t7fHwoULo7W1tUQzAwAAAAAAAAAAAAAAAEpNASGUuT333DOuvPLKRPsf//jHuOGGG0owIwAAAAAAAAAAAAAAACANFBBCBpx99tmx8847J9oXLVpUgtkAAAAAAAAAAAAAAAAAaaCAEDKgsrIyjjvuuET7ww8/HC0tLSWYEQAAAAAAAAAAAAAAAFBqCgghI/bYY49E29atW+PVV18twWwAAAAAAAAAAAAAAACAUlNACBkxZcqUgu3r1q0b45kAAAAAAAAAAAAAAAAAaaCAEDJi/fr1Bdvr6urGeCYAAAAAAAAAAAAAAABAGigghIx48cUXC7bPmDFjjGcCAAAAAAAAAAAAAAAApIECQsiAxsbG+MMf/pBonzRpUuy6664lmBEAAAAAAAAAAAAAAABQagoIIQO+//3vx9atWxPtp5xySlRVVZVgRgAAAAAAAAAAAAAAAECpKSCEMnfvvffG//pf/6tg31lnnTXGswEAAAAAAAAAAAAAAADSQgEhlKktW7bE//7f/ztOPfXUaG1tTfTPmzcvPv/5z5dgZgAAAAAAAAAAAAAAAEAaVJd6AkDEQw89NOhnmpubY9OmTfHHP/4xHn300bjtttuisbGx4GenTJkSP/nJT6KiomKkpwoAAAAAAAAAAAAAAACUCQWEkALz5s0bsbGmTp0ad955Zxx66KEjNiYAAAAAAAAAAAAAAABQfipLPQFg5Bx//PHx8MMPj2hBIgAAAAAAAAAAAAAAAFCeKnK5XK7Uk4Dx4vLLL48rrrhiRMesqKiI448/Pi655JI455xzRnTssdDQ0BDz58/Pa1u6dKkiSAAAAAAAAAAAAAAAAEbEeK5fqS71BIChqa2tjSlTpsS0adNixowZccQRR8SRRx4ZJ510Uuy9996lnh4AAAAAAAAAAAAAAACQMgoIYQxdfvnlcfnll5d6GgAAAAAAAAAAAAAAAMA4UFnqCQAAAAAAAAAAAAAAAAAAI08BIQAAAAAAAAAAAAAAAABkkAJCAAAAAAAAAAAAAAAAAMggBYQAAAAAAAAAAAAAAAAAkEEKCAEAAAAAAAAAAAAAAAAggxQQAgAAAAAAAAAAAAAAAEAGKSAEAAAAAAAAAAAAAAAAgAxSQAgAAAAAAAAAAAAAAAAAGaSAEAAAAAAAAAAAAAAAAAAySAEhAAAAAAAAAAAAAAAAAGSQAkIAAAAAAAAAAAAAAAAAyCAFhAAAAAAAAAAAAAAAAACQQQoIAQAAAAAAAAAAAAAAACCDFBACAAAAAAAAAAAAAAAAQAYpIAQAAAAAAAAAAAAAAACADFJACAAAAAAAAAAAAAAAAAAZpIAQAAAAAAAAAAAAAAAAADJIASEAAAAAAAAAAAAAAAAAZJACQgAAAAAAAAAAAAAAAADIIAWEAAAAAAAAAAAAAAAAAJBBCggBAAAAAAAAAAAAAAAAIIMUEAIAAAAAAAAAAAAAAABABikgBAAAAAAAAAAAAAAAAIAMUkAIAAAAAAAAAAAAAAAAABmkgBAAAAAAAAAAAAAAAAAAMkgBIQAAAAAAAAAAAAAAAABkkAJCAAAAAAAAAAAAAAAAAMggBYQAAAAAAAAAAAAAAAAAkEEKCAEAAAAAAAAAAAAAAAAggxQQAgAAAAAAAAAAAAAAAEAGKSAEAAAAAAAAAAAAAAAAgAxSQAgAAAAAAAAAAAAAAAAAGaSAEAAAAAAAAAAAAAAAAAAySAEhAAAAAAAAAAAAAAAAAGSQAkIAAAAAAAAAAAAAAAAAyCAFhAAAAAAAAAAAAAAAAACQQQoIAQAAAAAAAAAAAAAAACCDFBACAAAAAAAAAAAAAAAAQAYpIAQAAAAAAAAAAAAAAACADFJACAAAAAAAAAAAAAAAAAAZpIAQAAAAAAAAAAAAAAAAADJIASEAAAAAAAAAAAAAAAAAZJACQgAAAAAAAAAAAAAAAADIIAWEAAAAAAAAAAAAAAAAAJBBCggBAAAAAAAAAAAAAAAAIIMUEAIAAAAAAAAAAAAAAABABikgBAAAAAAAAAAAAAAAAIAMUkAIAAAAAAAAAAAAAAAAABlUXeoJAABst5+eFPH6svy2PeZGfPHu0sxnJGV5bcDYEUvKk+tWvlw7YCSIJcBIyHIssbbyZG3lydrKV5bXZ23lKctrozy5J0kb9ySMnSx/36wNxpb7EsaO7xvAdvEbCCGFbrrppqioqCj4f3feeWeppwcAAAAAAAAAAAAAAACUAQWEkELXXHPNgH2LFi0aw5kAAAAAAAAAAAAAAAAA5UoBIaTM2rVri/6WwVtuuSXWr18/hjMCAAAAAAAAAAAAAAAAypECQkiZxYsXR3t7+4D9LS0t8fOf/3wMZwQAAAAAAAAAAAAAAACUIwWEkDKLFi0akc8AAAAAAAAAAAAAAAAA45sCQkiRhoaGeO655/Laamtro7Iy/6u6fPnyeOqpp8ZyagAAAAAAAAAAAAAAAECZUUAIKXLNNdck2s4444z42Mc+NqTPAgAAAAAAAAAAAAAAAHRTQAgp0dTUFDfeeGOi/YILLoiFCxcm2q+//vpobW0di6kBAAAAAAAAAAAAAAAAZUgBIaTEr371q9i0aVNe26677hqnnHJKfPazn40pU6bk9b377rtx6623juUUAQAAAAAAAAAAAAAAgDKigBBSYtGiRYm2c889N6qrq6O+vj7+9E//dEjHAAAAAAAAAAAAAAAAAEQoIIRUWL16dSxZsiTRvnDhwoL/f7c777wz1qxZM6pzAwAAAAAAAAAAAAAAAMqTAkJIgWuvvTZyuVxe26GHHhpHHHFEz5+PP/742HvvvfM+09HREYsXLx6DGQIAAAAAAAAAAAAAAADlRgEhlFhnZ2f87Gc/S7T3/42DFRUVccEFFyQ+d+21147W1AAAAAAAAAAAAAAAAIAypoAQSuzuu++OV199Na+tqqoqzjvvvMRnCxUQPvfcc7F06dJRmx8AAAAAAAAAAAAAAABQnhQQQoktWrQo0XbyySfHjBkzEu0zZ86MY489dkhjAAAAAAAAAAAAAAAAAONbdaknAOPZe++9FzfffHOifeHChQMes3DhwnjwwQfz2n75y1/G1VdfHfX19SM9xUE1NDRs1/ErVqwYoZkAAAAAAAAAAAAAAAAAfSkghBK64YYbYuvWrXlt06ZNizPOOGPAY84666z4yle+Es3NzT1tmzdvjl/96ldxwQUXjNpcBzJ//vwxPycAAAAAAAAAAAAAAAAwOAWEUELXXHNNou2ss86KCRMmDHjM1KlT40/+5E/ihhtuyGtftGhRSQoIR8OSG1bG2oaK2PVD0+Kjnzswr6/h5udi7eoNERFx6pdmx4T6mp6+N15YF4/c9mJERBy64EPx4dkfyDv2lqsfjs6OXEzftT5O/LPD8vqW/25VvLLynYiI+NgFh8W0nXt/m+M7r22MB//z2YiI2G/u7nHIcXvlHXvnvy+P5sbWmDi5Nk65eFZe38oHXo0Xl70ZERHHfv7A2GXPaT19G99tinsXPxURER86ZJeYdfLMvGN/f91TseHtpqisqogz/vrovL4/PrYmVix5JSIijjptv/jg/jv19G1taovf/vixiIiYse/0mPcnB+Qd+4f/ejbefmVjREScdtmcqKnr/VHw2rPvxKO/XRUREYd/bO/Y94gZecfedNVDERGx4wcmx4JzDsnrW3bHi/H6c+siIuITFx4ek3eY2NP31ssbYumvn4uIiAPm7REHztsj79g7/u3RaGluj0nTJ8TJf3FEXt9T970cq5avjYiI479wcOy0+5Sevvfeaoz7rl8ZERH7HL5bHPHxffKOvednT8amdc1RXVsVp//l3Ly+5x95I5558LWIiDjmjP3jAzN37Olr2twS//0fj0dExO777RhHn75/3rEP3Ph0vPv65oiI+MxXjoqq6sqevpdXvBWP3/VSREQc+Yl9Yu9Dd+vp62jvjN/8yyMREbHzHlPiuLMOzhv34VtfiDdfXB8REZ+86Mion1LX07dm1fp46JYXIiLioGP3jI8c9cG8Y2/9wbJob+2IqTtNjI8vPDyv74l7XoqXnnwrIiJOOO+Q2GG3yT19697cHPf/4umIiJg5a0YcdsLeecf+7ponYsuGrVE3sTo+demcvL5nG16P5xpej4iI+Z89IHbbe3pPX+N7zXHXoicjImKPA3aKuZ/aL+/YJTesjPVrGiMi4sy/PSavb/UTa+PJe1+OiIg5p86MPQ/cpaevraU9bvvhoxERBWNEX52duajs8+dyjRELtjTGjpEkRnQRI7qIEV0GixHyiHzr1zRG8wvrxIhIcYyIpPVrGuPpG58WI8ooRnRbv6Yxqt5tSn2MkEd0KYsYIY/IRIwolke0tXRETQxMjOgiRnQRI7qMpxgx1DzixOYtMT3yNW1qif/e9r3KQowoplxjRKH3QR0dnfGbbdctCzGir/a2jry/sCzXGDHQe7w0x4jh5hF9NW7YGpP7taUxRgyWR8xcU/i6pTlGRAw/j+grl4uo6PPnNMaIoeQRA33n0hojIoafR/S1dUtr9P8b5LTFiKHkEYcP8J1La4woxzwiwrPG+80juq1f0xhtL29IfYwotzyiHJ81ShEjtmxqiUlRmBjRy/uILmJEl+2JEcWkMUYMNY84OZeMJRvfaYp7r3ooEzFiMGJEFzGiy1jkEadWtSWe19avaYwlVz2UyhghjxAjIso3RhR6H9Te1hm3bvu5nMYYUW55hBghRkSUb4yIGH4eMd4oIIQSeeqpp+Kxxx5LtA+lCHDhwoWJAsIlS5bE6tWrY9999x2xOZbK1i1t0bSpJVqa2hJ9rc3t0bSppesPuVxeX3tbR09fW2tH4timTS3R2ZGLCZOSf/HWtrV33Fxn/ridHbmevvaW9sSxzY2tvXPqp72ld9zOjvxxc52947ZtTY7bvQ+VVRWJvrbW3rW2t/Vba6533Nbm5LgtTW0Dz7etc9A9jIion5p8KZO3h/lLjY72PuMW2MOmza3R0tSWl/z1jNvS0WcPO/P6BtvD7mtTU1dVdNyO9vxxIxd99jB5H7Y0tQ9pD9vbOhP93X0tTRMTfa3Nfa5N0T1MXpvmzS1d/3FpobUWvb+Lj7t12x4m9ii6ruVAe5jrs4fF7u9C8u/vYnuYvDb5k8j/Y7nGiI5I7kGEGNEzrhjRM0cxokuxGCGPyNfR0SlGlFmMiOi6bi1NyfmKEdvGTWGM6NbR0RmVZRAj5BFdyjFGyCO2jVtmMaLYHub6X6x+xIjoWYMYIUZ0G08xYqh5RGdVMpbkcrlo2pydGFFMucaIgd4HZSlG5Ok3brnGiIGuW5pjRCHF8oi+cv2/VJHOGDFYHtHRMcDzd4pjRPf88gcuHiOKSWOMGEoeMeC785TGiIjh5xF9dRZYbtpixFDyiIG+c2mNEeWYR3TPL3/gbOURo/Ws0TO3js6yiBHllkeU47NGKWJE/+vRv0+M6OJ9RBcxInrW935jRDFpjBFDzSNyk5KxpPv+z0KMGIwY0UWMiJ71jXYekZuevEk7tt1PaYwR8ggxIqJ8Y8Rg787TGCPKLY8QI8SIiPKNEd3j9DXY/T3eKCCEElm0aFGibebMmXHssccOeuxJJ50Uu+++e7z55ps9bblcLq699tr4zne+M6LzLIUJk2qifmpd1BX4FzZrJ1b3JkwV+clcdU1VT19NbfIHd/3UugF/INVM6B23ojJ/3Mqqip6+6rpk2Jw4uTbvf/PmVNc7bv/ks6Kyd9yaCclxu/ehUNJaU9u71uqafmut6B23dmJy3Lr6moJJZ9dYlYPuYffcEnPqu4f9plxV3WfcAntYP6U2qqorY0KBPaypq+qzh/lJ7WB7OHFybbS1dER1gbX0HTeRLFdEnz1MrrWuvnpIe1hdk0zCu/vq6pPzrZ3Y59oU3cPkeiZOqYuauo6C92Hx+7v4uBMm10ZHe2fUFbiXavrc3/33sKLPHha7vwvJv7+L7WGx38URiT0s1xhRtaUyosB/GydGbBtXjOiZoxjRpViMkEfkq6qqFCPKLEZEdF03MaK8YkS3qqrKsogR8ogu5Rgj5BHbxi2zGFFsDyv6X6x+xIjoWYMYIUZ0G08xYqh5RGVzReK9QkWf72sWYkQx5RojBnoflKUYkaffuOUaIwa6bmmOEcPNI/qq6P+linTGiMHyiKqqwtctzTGie375AxePEcWkMUYMJY8Y8N15SmNExPDziL4qC7wqSluMGEoeMdB3Lq0xohzziO755Q+crTxitJ41euZWVRmdZRAjyi2PKMdnjVLEiP7Xo3+fGNHF+4guYkT0rO/9xohi0hgjhppHVOSS+1RZVRn19XWZiBGDESO6iBHRs77RziMKvSOpqqqM+kl1qYwR8ggxIqJ8Y8Rg787TGCPKLY8QI8SIiPKNEd3j9DXY/T3eVOQK/fOQwKhqa2uL3XffPd5999289ssvvzy+/e1vD2mMv/u7v4srr7wyr22vvfaKl156KSoL/Q3SKGloaNiu41esWBGXXHJJXtvSpUtj3rx52zUuMM789KSI15flt+0xN+KLd5dmPiMpy2sDxo5YUp5ct/Ll2gEjQSwBRkKWY4m1lSdrK0/WVr6yvD5rK09ZXhvlyT1J2rgnYexk+ftmbTC23JcwdnzfgBHQ0NAQ8+fPz2sbL/UrSiihBG699dZE8WBFRUVccMEFQx5j4cKFiQLCV199Ne655574xCc+MSLzHIrxECgBAAAAAAAAAAAAAACgHI3drykDelxzzTWJtuOOOy722WefIY9x8MEHx+zZsxPtixYt2q65AQAAAAAAAAAAAAAAANmggBDG2Jo1a+LOO+9MtA/ntw92W7hwYaLtpptuig0bNryfqQEAAAAAAAAAAAAAAAAZooAQxtjixYujo6Mjr23ixInx+c9/fthjnXPOOVFTU5PXtnXr1rjhhhu2a44AAAAAAAAAAAAAAABA+asu9QRgvFm0aFGibe7cufHMM8+8r/FmzZoVDz/8cOIcl1566fsaDwAAAAAAAAAAAAAAAMgGBYQwhpYuXRrPP/98ov3++++PefPmjdh5li1bFk8//XQcfPDBIzYmAAAAAAAAAAAAAAAAUF4qSz0BGE+uueaaTJ4LAAAAAAAAAAAAAAAASB8FhDBGmpqa4sYbbxyz81133XXR1tY2ZucDAAAAAAAAAAAAAAAA0kUBIYyR//zP/4zNmzeP2fnefvvtuP3228fsfAAAAAAAAAAAAAAAAEC6KCCEMbJo0aJE2ymnnBK5XG5E/u+0004b0jkBAAAAAAAAAAAAAACA8UEBIYyBVatWxf33359oP/fcc0fsHOecc06i7Y477oi33nprxM4BAAAAAAAAAAAAAAAAlA8FhDAGFi1aFLlcLq9t4sSJceaZZ47YOc4444yYNGlSXlt7e3v8v//3/0bsHAAAAAAAAAAAAAAAAED5UEAIo6yzszMWL16caD/99NNj8uTJI3aeSZMmxWc+85lE+6JFi0bsHAAAAAAAAAAAAAAAAED5UEAIo+yuu+6K1157LdF+7rnnjvi5Co35zDPPxMMPPzzi5wIAAAAAAAAAAAAAAADSTQEhjLJCvwFwhx12iFNPPXXEz/XJT34ydtpppyHNAQAAAAAAAAAAAAAAAMg2BYQwit577724+eabE+2f+9znora2dsTPV1NTE3/6p3+aaP/FL34Rzc3NI34+AAAAAAAAAAAAAAAAIL0qcrlcrtSTgKz6wQ9+EH/1V3+VaL/33nvjxBNPHJVz3n///bFgwYJE+3XXXRfnnXfeqJxzezQ0NMT8+fPz2pYuXRrz5s0r0YwAAAAAAAAAAAAAAADIkvFcv+I3EMIoWrRoUaLtgx/8YMECv5Fy3HHHxZ577jmkuQAAAAAAAAAAAAAAAADZpYAQRslTTz0Vy5cvT7SfffbZUVk5el+9ioqK+MIXvpBov/fee+OVV14ZtfMCAAAAAAAAAAAAAAAA6VJd6glAVm3atCm+/e1vJ9rPO++8UT/3JZdcEvX19Yn2d999Nz70oQ+N+vkBAAAAAAAAAAAAAACA0lNACKPk2GOPjWOPPbYk5545c2ZcfvnlJTk3AAAAAAAAAAAAAAAAkA6VpZ4AAAAAAAAAAAAAAAAAADDyFBACAAAAAAAAAAAAAAAAQAYpIAQAAAAAAAAAAAAAAACADFJACAAAAAAAAAAAAAAAAAAZpIAQAAAAAAAAAAAAAAAAADJIASEAAAAAAAAAAAAAAAAAZJACQgAAAAAAAAAAAAAAAADIIAWEAAAAAAAAAAAAAAAAAJBBCggBAAAAAAAAAAAAAAAAIIMUEAIAAAAAAAAAAAAAAABABikgBAAAAAAAAAAAAAAAAIAMUkAIAAAAAAAAAAAAAAAAABmkgBAAAAAAAAAAAAAAAAAAMkgBIQAAAAAAAAAAAAAAAABkkAJCAAAAAAAAAAAAAAAAAMggBYQAAAAAAAAAAAAAAAAAkEEKCAEAAAAAAAAAAAAAAAAggxQQAgAAAAAAAAAAAAAAAEAGKSAEAAAAAAAAAAAAAAAAgAxSQAgAAAAAAAAAAAAAAAAAGaSAEAAAAAAAAAAAAAAAAAAySAEhAAAAAAAAAAAAAAAAAGSQAkIAAAAAAAAAAAAAAAAAyCAFhAAAAAAAAAAAAAAAAACQQQoIAQAAAAAAAAAAAAAAACCDFBACAAAAAAAAAAAAAAAAQAYpIAQAAAAAAAAAAAAAAACADFJACAAAAAAAAAAAAAAAAAAZpIAQAAAAAAAAAAAAAAAAADJIASEAAAAAAAAAAAAAAAAAZJACQgAAAAAAAAAAAAAAAADIIAWEAAAAAAAAAAAAAAAAAJBBCggBAAAAAAAAAAAAAAAAIIMUEAIAAAAAAAAAAAAAAABABikgBAAAAAAAAAAAAAAAAIAMUkAIAAAAAAAAAAAAAAAAABmkgBAAAAAAAAAAAAAAAAAAMkgBIQAAAAAAAAAAAAAAAABkkAJCAAAAAAAAAAAAAAAAAMggBYQAAAAAAAAAAAAAAAAAkEEKCAEAAAAAAAAAAAAAAAAggxQQAgAAAAAAAAAAAAAAAEAGKSAEAAAAAAAAAAAAAAAAgAxSQAgAAAAAAAAAAAAAAAAAGaSAEAAAAAAAAAAAAAAAAAAyqLrUE4BSe++99+KZZ56J1atXx7p162LLli1RVVUVkyZNit122y323XffOPjgg2PixImlnioAAAAAAAAAAAAAAADAkCkgZFx68skn4+c//3nccccd8fTTT0culyv6+dra2pg9e3aceeaZ8YUvfCH23HPPEZnHCSecEEuWLBny5ysqKmLy5Mkxffr0mD59ehx44IExd+7cmDdvXsyfPz8qKipGZF4A5ebMH/0hHn91Q17bkXtNj5u+/NHSTGgEWRtp47qVpyxfN2srX1leX5bXlmVZvm5ZXluWZfm6WVt5srbyZG3lydrKk7WVpyyvLSLb67O28mRtpI3rRtpk+Z60NtImy9fN2kibrF+3LK8vy2vLsixftyyvDWAsKCBkXFmyZElcccUV8fvf/35Yx7W2tkZDQ0M0NDTE17/+9TjnnHPi8ssvj5kzZ47STAvL5XKxefPm2Lx5c7z22muxYsWKuPHGGyMiYr/99ouLL744vvzlL0d9ff2YzgsAAAAAAAAAAAAAAABIn8pSTwDGwoYNG2LhwoVxwgknDLt4sL+Ojo647rrr4pBDDonvfve70dnZOUKz3D4vvvhifO1rX4sjjzwyHn744VJPBwAAAAAAAAAAAAAAACgxBYRk3tNPPx1z586NxYsXF/3c9OnTY/bs2fGxj30sFixYEIcddljR3+S3devW+Md//Mf49Kc/HRs2bBjhWb9/L7zwQhx77LFx++23l3oqAAAAAAAAAAAAAAAAQAlVl3oCMJoef/zxOOmkk2L9+vUF+/fbb7+4+OKL4/TTT4+PfOQjif7Ozs5Yvnx5/OpXv4prrrkm3nnnncRn7rzzzjjppJPirrvuih122GG753zkkUfGj370o4J9uVwuNm7cGGvWrImGhoa4+eabC86pvb09zjrrrFiyZEnMmTNnu+cEAAAAAAAAAAAAAAAAlB8FhGTW6tWr4xOf+ETB4sHJkyfHlVdeGRdddFFUVVUNOEZlZWXMmTMn5syZE9/4xjfiO9/5Tlx11VXR2dmZ97nHHnssPv3pT8d9990XtbW12zXvqVOnxjHHHDPo5y688MK4+uqr45//+Z/j29/+drS3t+f1NzU1xaWXXhqPPPJIVFRUbNecAAAAAAAAAAAAAAAAgPJTWeoJwGhobm6OM844I9atW5fo23fffeOxxx6LL33pS0WLB/ubMmVKXHnllXH77bfHpEmTEv0NDQ1x2WWXbde8h2vixInxj//4j3HzzTcXXMujjz4a//Vf/zWmcwIAAAAAAAAAAAAAAADSQQEhmfStb30rVq5cmWjfa6+94oEHHoj999//fY99yimnxO233x51dXWJvp/+9Kdxxx13vO+x369Pf/rT8fWvf71g3/XXXz/GswEAAAAAAAAAAAAAAADSQAEhmfPMM8/E97///UR7VVVV/PrXv47dd999u8+xYMGC+Kd/+qeCfZdddlm0trZu9zmG66tf/WpMmTIl0f773/8+Ojo6xnw+AAAAAAAAAAAAAAAAQGkpICRzvv3tbxcsmPubv/mbmD179oid59JLL41jjjkm0f7yyy/H//2//3fEzjNU06ZNixNOOCHRvnHjxnjuuefGfD4AAAAAAAAAAAAAAABAaSkgJFNeeeWV+PWvf51o32OPPeKKK64Y0XNVVlbGT37yk6ioqEj0FfoNiGNhzpw5BdvffvvtMZ4JAAAAAAAAAAAAAAAAUGoKCMmURYsWRWdnZ6L9i1/8YtTX14/4+Q477LCCv/XvhRdeiCVLloz4+Qazyy67FGx/9913x3gmAAAAAAAAAAAAAAAAQKkpICRTbrrppkRbZWVlXHjhhaN2zv/xP/5Hwfabb7551M45kFwuN+bnBAAAAAAAAAAAAAAAANJJASGZ8eabb8ZTTz2VaD/uuONir732GrXzfu5zn4sJEyYk2u+8885RO+dABvpNgzvvvPMYzwQAAAAAAAAAAAAAAAAoNQWEZMbDDz9csH3evHmjet4JEybE4Ycfnmh//vnnY+PGjaN67v6WLVtWsH2XXXYZ03kAAAAAAAAAAAAAAAAApaeAkMx44oknCrbPmTNn1M9d6By5XG7AOY2GjRs3xn333Zdonzp1ahxwwAFjNg8AAAAAAAAAAAAAAAAgHapLPQEYKatWrSrYPmvWrFE/9+zZswu2r1q1KhYsWDDq54+I+N73vheNjY2J9hNOOCGqq0fvq97Q0LBdx69YsWKEZgIAAAAAAAAAAAAAAAD0pYCQzHjjjTcKtu+2226jfu5dd921YPvrr78+6ueOiLjjjjviu9/9bsG+c889d1TPPX/+/FEdHwAAAAAAAAAAAAAAAHh/FBCSGevXr0+01dTURH19/aife/r06QXb33vvvVE9b3Nzc1x99dXxrW99Kzo6OhL9RxxxRJx11lmjOofRsOSGlbG2oSJ2/dC0+OjnDszra7j5uVi7ekNERJz6pdkxob6mp++NF9bFI7e9GBERhy74UHx49gfyjr3l6oejsyMX03etjxP/7LC8vuW/WxWvrHwnIiI+dsFhMW3n3vvmndc2xoP/+WxEROw3d/c45Li98o6989+XR3Nja0ycXBunXJz/Gy9XPvBqvLjszYiIOPbzB8Yue07r6dv4blPcu/ipiIj40CG7xKyTZ+Yd+/vrnooNbzdFZVVFnPHXR+f1/fGxNbFiySsREXHUafvFB/ffqadva1Nb/PbHj0VExIx9p8e8Pzkg79g//Nez8fYrGyMi4rTL5kRNXe+PgteefSce/W3Xb/M8/GN7x75HzMg79qarHoqIiB0/MDkWnHNIXt+yO16M159bFxERn7jw8Ji8w8Sevrde3hBLf/1cREQcMG+POHDeHnnH3vFvj0ZLc3tMmj4hTv6LI/L6nrrv5Vi1fG1ERBz/hYNjp92n9PS991Zj3Hf9yoiI2Ofw3eKIj++Td+w9P3syNq1rjuraqjj9L+fm9T3/yBvxzIOvRUTEMWfsHx+YuWNPX9Pmlvjv/3g8IiJ232/HOPr0/fOOfeDGp+Pd1zdHRMRnvnJUVFVX9vS9vOKtePyulyIi4shP7BN7H9pbxNzR3hm/+ZdHIiJi5z2mxHFnHZw37sO3vhBvvtgVyz550ZFRP6Wup2/NqvXx0C0vRETEQcfuGR856oN5x976g2XR3toRU3eaGB9feHhe3xP3vBQvPflWRESccN4hscNuk3v61r25Oe7/xdMRETFz1ow47IS984793TVPxJYNW6NuYnV86tI5eX3PNrwezzV0FUrP/+wBsdve03v6Gt9rjrsWPRkREXscsFPM/dR+eccuuWFlrF/T9VtTz/zbY/L6Vj+xNp689+WIiJhz6szY88BdevraWtrjth8+GhFRMEb01dmRy/tzucaI9euTv102Ilsxoq/mza2JNjGiSxpjRLcNa7ck2tIYI+QR+da/2RhvvLAu9TFisDyi0P3XrdxjRCHr32yMB258uixixGB5xPo3C/+My1qM6Lb+zcbY+G5T6mNEueURI/msUcj6NxvjiXteSmWMGE4e0fje1oLri0hvjJBHRLS3JN/19FXOMSJXm/+8FtH1fbvpqodSGyOGk0cUk8YYMdQ8Ymt78nntvbVd1y0LMaKYNMaIoeYRGzYm8+WmTS0936s0xojh5hHFpDFGDCWPKPQ+qLMj13Pd0hgjhptH9NXelv8zL40xYih5xEDv8dIcI4abR/S1ZUMyx0xjjBgsjxjo2TTNMSJi+HlEnn6pWBpjxFDyiIG+c2mNERHDzyP62trYlmhLW4wYSh4x0HcurTHi/eYRPXvydjIXS2OMKLc8YrSeNbqtf7Mx3np5Q+pjRLnlEeX4rFGK9xFNG1tiIOUeIwrpfh9UDjGiWB7R2d5ZcH3dxIguaYwRxaQxRgw1j2hqScaSje80xU1XPZTaGDGcPGIwaYsR8oihSWOMGGoe0dKRfF7r/hmXxhgx3DyimDTGiHLLI0YrRgwmjTFiKHlEofdBHW2dPT+X0xgjyi2PKMdnDTFifOQRo/WsMd4oICQzmpubE23TphX+S82RNtB5Cs1pMJs2bYqHHnqoYF8ul4tNmzbF2rVrY+nSpXHTTTfFO++8U/CzEyZMiB/96EdRUVEx7DmU2tYtbdG0qSVampIPVq3N7dG0adtLjlz+33C2t3X09LW1Jv8ju6ZNLdHZkYsJk5J/8da2tXfcXGf+uJ0duZ6+9pb2xLHNja29c+qnvaV33P7FTLnO3nHbtibH7d6HyqrkNWxr7V1r//+4InK947Y2J8dtaWobeL5tnYPuYURE/dTkS5m8Pez3l88d7X3GLbCHTZtbo6WpLS/56xm3paPPHua/dB1sD7uvTU1dVdFxO/q/zM1Fnz1M3octTe1D2sP2tuRL4u6+lqZk8VRrc59rU3QPk9emeXNLtLV0FF5r0fu7+Lhbt+1hYo+i61oOtIe5PntY7P4uJP/+LraHyWtTTLnGiP73fbcsxYi86XUmO8WI6DlX2mJE388lxk1hjJBH5Ovs6CyLGDFYHjFQnOz6fLZiRPc6WpqS801jjBgsjxjo2mUtRnTr7OgsixhRbnnEaD1rdOvs6CybGFEsjyiUY3VLa4yQRyTCeUJZx4idk/dT9z1TDjFisD0sJo0xYqh5ROeE5F3Z/bMsCzFiMGmLEUPNI/rHgK7Bos/9ncIY0c9geUQxaYwRQ8kjBspN0hwjhptH5Ok3bhpjxFDyiIGuW5pjRCHF8oi+CuWYaYwRg+URA123NMeI7vnlD1w8RhSTxhgxlDxiwHfnKY0REcPPI/LnV+DdecpixFDyiIGuW1pjxPvNI7oViqNpjBHllkeM1rNG3zHKIUaUWx5Rjs8apXgfUSje9/RlLEZE9PnOlkGMKJpHFFxdn3HFiJ7Ppy1GFJPGGDHUPKKzptB7vM6yihHF8ojBpC5GyCOGJI0xYqh5RK5+4O9cGmPEcPOIolIYI8oujxjFGFFMGmPEUPKIwd6dpzFGlFsekYVnDTFi27gZyyNG61ljvFFASGYU+g18dXVD/5dntsdA52lrG95f0EVEPP744zFv3rztmk9lZWX8/Oc/3+5xSmXCpJqon1oXdQX+hc3aidW9CVO/4sjqmqqevpra5A/u+ql1A/5AqpnQO25FZf64lVUVPX3VdcmwOXFybd7/5s2prnfc/slnRWXvuDUTkuN270OhpLWmtnet1TX91lrRO27txOS4dfU1BZPOrrEqB93D7rkl5tR3D/tNuaq6z7gF9rB+Sm1UVVfGhAJ7WFNX1WcP85PawfZw4uTaaGvpiOoCa+k7biJZrog+e5hca1199ZD2sLommYR399XVJ+dbO7HPtSm6h8n1TJxSFzV1HQXvw+L3d/FxJ0yujY72zqgrcC/V9Lm/++9hRZ89LHZ/F5J/fxfbw4H/A/1CyjVGVK7fGlHgoSFLMSJvepXJTjEies6VthjR93OJcVMYI+QR+SqrKssiRgyWR1RWVUYUeBbo+ny2YkT3OsolRgyWR1RWVRb8GZe1GNGtsqqyLGJEueURo/Ws0a2yqrJsYkSxPKJQjtUtrTFCHpEI5wnlHSOSL+a775lyiBGD7WExaYwRQ80jKtubE8d2/yzLQowYTNpixFDziMqNLcmvXJ99SmeMyDdYHlFMGmPEUPKIgd4HpTlGDDePyNNv3DTGiKHkEQNdtzTHiOHmEX0VyjHTGCMGyyMGejZNc4zonl/+wMVjRDFpjBFDySMGfHee0hgRMfw8In9+Bd6dpyxGDCWPGOg7l9YY8X7ziG4F42EKY0S55RGj9azRd4xyiBHllkeU47NGKd5HFPtHwss+RjQlj+/5zpZBjCiaRySXlj+uGNHz+bTFiGLSGCOGmkdUFviP1iurKqN+Sl16Y0Q/xfKIwaQuRsgjhiSNMWKoeURFx9ZEf/f9lMYYMdw8oqgUxoiyyyNGMUYUk8YYMZQ8YrB352mMEeWWR5Tls0Y/YsS2cTOWR4zWs8Z4U5Er9k8XQRk56KCD4tlnn81rmzJlSmzatGnUz/3YY4/FnDlzEu2XXXZZ/OAHPxjwuBNOOCGWLFkyonPZZ5994tprr43jjz9+RMcdSENDw3Ydv2LFirjkkkvy2pYuXVq2xY9AaZz5oz/E469uyGs7cq/pcdOXP1qaCY0gayNtXLfylOXrZm3lK8vry/LasizL1y3La8uyLF83aytP1laerK08WVt5srbylOW1RWR7fdZWnqyNtHHdSJss35PWRtpk+bpZG2mT9euW5fVleW1ZluXrluW1AWOnoaEh5s+fn9c2XupXlFCSGZMmTUq0NTY2RkdHR1RVDfNfxRimDRs2DHlOo2WfffaJL37xi/GVr3wlJk+ePGbnHQ+BEgAAAAAAAAAAAAAAAMqRAkIyY8aMGYm2XC4XGzdujB133HFUz71x48Yhz2l7TZ48OaZNmxbTp0+PAw44IObMmRPz58+P4447Lir6/65iAAAAAAAAAAAAAAAAYNxSQEhm7LnnngXbX3zxxTj66KNH9dwvvPBCwfaB5lTMggUL4r777tvOGQEAAAAAAAAAAAAAAADjXWWpJwAj5eCDDy7YvmzZslE/90DnGGhOAAAAAAAAAAAAAAAAAKNNASGZMWvWrILtjz766Kifu9A5Jk2aFB/5yEdG/dwAAAAAAAAAAAAAAAAAhSggJDNmz54dU6ZMSbTffffd0dHRMWrnff755+PVV19NtC9YsCAqK33FAAAAAAAAAAAAAAAAgNJQ3URm1NbWxkknnZRof+ONN+LOO+8ctfP+9Kc/Ldh+6qmnjto5AQAAAAAAAAAAAAAAAAajgJBMOe+88wq2D1Tkt73a2tpi8eLFifba2to4++yzR+WcAAAAAAAAAAAAAAAAAEOhgJBM+cxnPhMzZsxItP/mN7+JhoaGET/fP//zP8fbb7+daD/zzDNjl112GfHzAQAAAAAAAAAAAAAAAAyVAkIypaamJv7+7/8+0d7Z2RkXXXRRtLW1jdi5XnrppbjiiisS7RUVFfHNb35zxM4DAAAAAAAAAAAAAAAA8H4oICRzLr300vjwhz+caH/66afjG9/4xoico62tLf78z/88mpqaEn0LFy6MQw45ZETOAwAAAAAAAAAAAAAAAPB+KSAkc+rq6uKnP/1pVFRUJPquvPLK+Kd/+qftGr+trS3OP//8uP/++xN9M2bMiKuuumq7xgcAAAAAAAAAAAAAAAAYCQoIyaQFCxbEt7/97YJ9X/3qV+Oyyy6LrVu3DnvctWvXxqmnnhq//OUvE301NTXxi1/8InbYYYdhjwsAAAAAAAAAAAAAAAAw0hQQkln/83/+z/izP/uzgn0/+tGP4pBDDonrrrsuWltbBx1rw4YNceWVV8ZBBx0U99xzT6K/oqIifvzjH8eCBQu2e94AAAAAAAAAAAAAAAAAI6G61BOA0VJRURE/+9nPorq6Oq699tpE/6pVq+L888+Pv/mbv4lPfvKTcfTRR8fMmTNj6tSp0dnZGevXr48XXnghHnzwwbj77rujubm54HmqqqriJz/5SfzFX/zFKK8IAAAAAAAAAAAAAAAAYOgUEJJplZWVsWjRojjkkEPi61//erS1tSU+8+6778b1118f119//bDH32WXXeKXv/xlnHjiiSMxXQAAAAAAAAAAAAAAAIARU5HL5XKlngSMhRUrVsSXv/zlePDBB7d7rMrKyrjgggvie9/7Xuy0007ve5wTTjghlixZkte2YMGCuO+++7ZzhuWjoaEh5s+fn9e2dOnSmDdvXolmBAAAAAAAAAAAAAAAQJaM5/qVylJPAMbKoYceGg888EDcfffdcfrpp0dNTc2wx5g2bVpcdNFF8cwzz8SiRYu2q3gQAAAAAAAAAAAAAAAAYDRVl3oCMNY+/vGPx8c//vFYv3593HXXXfGHP/whVq5cGS+99FKsX78+mpqaoqKiIiZNmhS77bZbzJw5M4444og47rjj4sQTT4y6uroRm8uPfvSj2LRpU17b1KlTR2x8AAAAAAAAAAAAAAAAYPxSQMi4teOOO8bZZ58dZ599dsnmcNBBB5Xs3AAAAAAAAAAAAAAAAEC2VZZ6AgAAAAAAAAAAAAAAAADAyFNACAAAAAAAAAAAAAAAAAAZpIAQAAAAAAAAAAAAAAAAADJIASEAAAAAAAAAAAAAAAAAZJACQgAAAAAAAAAAAAAAAADIIAWEAAAAAAAAAAAAAAAAAJBBCggBAAAAAAAAAAAAAAAAIIMUEAIAAAAAAAAAAAAAAABABikgBAAAAAAAAAAAAAAAAIAMUkAIAAAAAAAAAAAAAAAAABmkgBAAAAAAAAAAAAAAAAAAMkgBIQAAAAAAAAAAAAAAAABkkAJCAAAAAAAAAAAAAAAAAMggBYQAAAAAAAAAAAAAAAAAkEEKCAEAAAAAAAAAAAAAAAAggxQQAgAAAAAAAAAAAAAAAEAGKSAEAAAAAAAAAAAAAAAAgAxSQAgAAAAAAAAAAAAAAAAAGaSAEAAAAAAAAAAAAAAAAAAySAEhAAAAAAAAAAAAAAAAAGSQAkIAAAAAAAAAAAAAAAAAyCAFhAAAAAAAAAAAAAAAAACQQQoIAQAAAAAAAAAAAAAAACCDFBACAAAAAAAAAAAAAAAAQAYpIAQAAAAAAAAAAAAAAACADFJACAAAAAAAAAAAAAAAAAAZpIAQAAAAAAAAAAAAAAAAADJIASEAAAAAAAAAAAAAAAAAZJACQgAAAAAAAAAAAAAAAADIIAWEAAAAAAAAAAAAAAAAAJBBCggBAAAAAAAAAAAAAAAAIIMUEAIAAAAAAAAAAAAAAABABikgBAAAAAAAAAAAAAAAAIAMUkAIAAAAAAAAAAAAAAAAABmkgBAAAAAAAAAAAAAAAAAAMkgBIQAAAAAAAAAAAAAAAABkkAJCAAAAAAAAAAAAAAAAAMggBYQAAAAAAAAAAAAAAAAAkEEKCAEAAAAAAAAAAAAAAAAggxQQAgAAAAAAAAAAAAAAAEAGKSAEAAAAAAAAAAAAAAAAgAxSQAgAAAAAAAAAAAAAAAAAGaSAEAAAAAAAAAAAAAAAAAAySAEhAAAAAAAAAAAAAAAAAGSQAkIAAAAAAAAAAAAAAAAAyCAFhAAAAAAAAAAAAAAAAACQQQoIAQAAAAAAAAAAAAAAACCDFBACAAAAAAAAAAAAAAAAQAYpIAQAAAAAAAAAAAAAAACADFJACAAAAAAAAAAAAAAAAAAZpIAQAAAAAAAAAAAAAAAAADJIASEAAAAAAAAAAAAAAAAAZJACQgAAAAAAAAAAAAAAAADIIAWEAAAAAAAAAAAAAAAAAJBBCggBAAAAAAAAAAAAAAAAIIMUEAIAAAAAAAAAAAAAAABABikgBAAAAAAAAAAAAAAAAIAMUkAIAAAAAAAAAAAAAAAAABmkgBAAAAAAAAAAAAAAAAAAMkgBIQAAAAAAAAAAAAAAAABkkAJCAAAAAAAAAAAAAAAAAMggBYQAAAAAAAAAAAAAAAAAkEEKCAEAAAAAAAAAAAAAAAAgg6pLPQFgfNuyZUuibcWKFSWYCQAAAAAAAAAAAAAAAFlUqFalUE1LFikgBEpq9erVibZLLrmkBDMBAAAAAAAAAAAAAABgvChU05JFlaWeAAAAAAAAAAAAAAAAAAAw8hQQAgAAAAAAAAAAAAAAAEAGKSAEAAAAAAAAAAAAAAAAgAyqyOVyuVJPAhi/3nzzzbjtttvy2vbdd9+YNGlSiWYElKMVK1bEJZdcktf2k5/8JA499NASzQgAGM/kJgBAWshLAIA0kZsAAGkhLwEA0kRuAmNny5YtsXr16ry20047LXbfffcSzWjsVJd6AsD4tvvuu8fFF19c6mkAGXTooYfGvHnzSj0NAICIkJsAAOkhLwEA0kRuAgCkhbwEAEgTuQkw0ipLPQEAAAAAAAAAAAAAAAAAYOQpIAQAAAAAAAAAAAAAAACADFJACAAAAAAAAAAAAAAAAAAZpIAQAAAAAAAAAAAAAAAAADJIASEAAAAAAAAAAAAAAAAAZJACQgAAAAAAAAAAAAAAAADIIAWEAAAAAAAAAAAAAAAAAJBBCggBAAAAAAAAAAAAAAAAIIMUEAIAAAAAAAAAAAAAAABABikgBAAAAAAAAAAAAAAAAIAMUkAIAAAAAAAAAAAAAAAAABmkgBAAAAAAAAAAAAAAAAAAMkgBIQAAAAAAAAAAAAAAAABkkAJCAAAAAAAAAAAAAAAAAMggBYQAAAAAAAAAAAAAAAAAkEEVuVwuV+pJAAAAAAAAAAAAAAAAAAAjy28gBAAAAAAAAAAAAAAAAIAMUkAIAAAAAAAAAAAAAAAAABmkgBAAAAAAAAAAAAAAAAAAMkgBIQAAAAAAAAAAAAAAAABkkAJCAAAAAAAAAAAAAAAAAMggBYQAAAAAAAAAAAAAAAAAkEEKCAEAAAAAAAAAAAAAAAAggxQQAgAAAAAAAAAAAAAAAEAGKSAEAAAAAAAAAAAAAAAAgAxSQAgAAAAAAAAAAAAAAAAAGaSAEAAAAAAAAAAAAAAAAAAySAEhAAAAAAAAAAAAAAAAAGSQAkIAAAAAAAAAAAAAAAAAyCAFhAAAAAAAAAAAAAAAAACQQQoIAQAAAAAAAAAAAAAAACCD/n979x0lZWH1D/zuwtKbFAHRgF1UUIyi2BCjYEEsYDdRUWOiRoMlsYtRk9iCGrtRo68xmKBRUIkFQcSAjaKCAqIIohSp0tllfn/4Ax1mFmZndtll+HzO4Zx37+xz5z6zOa/fnX3uPBYIAQAAAAAAAAAAAAAAACAPWSAEAAAAAAAAAAAAAAAAgDxkgRAAAAAAAAAAAAAAAAAA8pAFQgAAAAAAAAAAAAAAAADIQxYIAQAAAAAAAAAAAAAAACAPVa/sAQCA8jNhwoT4+OOP4+uvv47FixdHrVq1olmzZtG2bdvo0KFDFBUVVfaIGVu9enWMGzcuJkyYELNmzYqlS5dGnTp1onnz5rHbbrtF+/bto7Bw8/wshIULF8bo0aNj0qRJsWDBgigpKYkGDRrEtttuG3vuuWe0atWqskcEgIiQTfLd9OnTY/z48fH111/HggULYtmyZdGwYcPYYostomXLlrH33ntHgwYNKntMAIgIuQQAqFpkk83PtGnTYvz48TF16tRYtGhRFBcXR926daNx48ax7bbbxk477RTNmzev7DEB2AzJJfmvpKQkPvnkk5gwYULMnz8/FixYEIlEIho2bBiNGjWKnXbaKdq1axc1atSo7FEBQDbZCIqLi+Ojjz6KiRMnxqxZs2Lx4sVRvXr1qFu3bmy11Vax3XbbxS677BK1atWqsBlcAwuVwwIhAGzipk+fHvfcc088/fTT8fXXX5f6ffXr148ePXrExRdfHB07dtyIE5bNJ598EnfffXcMGDAg5s6dW+r3NWnSJE488cS45JJLYpdddsn5edu0aRNffvllzn1+7Mwzz4y///3v5dIrkUjEc889F/fff38MHz48iouLS/3edu3axTnnnBPnnHNO1KtXr1yeHwAyJZvkZzZZvXp1vPfeezF06NAYOnRojBo1KhYtWrTeYwoLC6Nt27ZxwgknxPnnn+8NXgA2OrkkP3NJWQ0ZMiQOO+ywUh9PJBIbZQ4AkE02v2wyfvz4+Nvf/hYvvPBCfPHFFxv8/p/85CfRqVOnOOKII+LII4+0UAhAhZFL8j+XrFq1KgYOHBiPPvpoDB8+PJYsWbLe769Ro0Z07Ngxzj777Dj55JOjbt26Oc8AAJmSTconm6xPcXFxDBo0KJ544okYMmRILF68eL3fX1RUFO3atYuDDz44jj766Dj44INz/rAB18BCFZAAADZJJSUliVtuuSVRu3btRESU6d/Pf/7zxIIFCyr7FJIsX7488dvf/jZRrVq1Mp1LtWrVEn369EksX748p+dv3bp1mV/HDf0788wzy+W1GT9+fKJjx45lfv5WrVolBg4cWC4zAMCGyCb5l01Wr16dGDZsWOKCCy5ING/ePKfnrl69euKss85KzJs3L6fXBQAyIZfkXy7J1pIlSxLbbbfdemcBgIomm2x+2eTzzz9P9OrVK6eZOnfuXK4zAUAiIZdsLrnkpZdeSvzkJz/JeoYtttgi8dhjj+U8BwBsiGxSvtmkNM8++2xixx13zCmjPP744znN4BpYqBo2v/uxA0AeWLZsWfTo0SOuueaaWLZsWZmP/7//+7/YZ599Mvq0041h7ty5cdBBB8Vdd90VJSUlZTq2pKQk+vXrFwcffPB6P61lU/Xyyy/HvvvuG++++26Zj50xY0Yce+yxcdNNN1XAZADwA9nkB/mUTWbMmBGHHHJI3H///TFr1qycehUXF8ff//732H333WPo0KHlNCEApJJLfpBPuSRb1157bXz++eeVPQYAmzHZ5AebSzZ58skno3379jFgwIDKHgUAksglP8jXXJJIJOI3v/lNHH300TFt2rSs+8yfPz969+4dxx57bKxYsaIcJwSAH8gmP6iobLJ48eI4/fTTo2fPnjF58uRy61tWroGFqqN6ZQ8AAJRNSUlJ9OzZMwYPHpz28aKioth1112jadOm8d1338WECRPS3m588uTJceihh8b//ve/aNmyZUWPXarFixfH4YcfHmPGjEn7eO3atWPXXXeNRo0axfz582PChAmxfPnylO979913o2vXrjF8+PCoW7duRY+9UQwdOjROOOGEUt+QbdGiRey4445RvXr1mDZtWkyZMiXlexKJRFx//fVRVFQUV155ZUWPDMBmSDbZfLJJOkVFRdGiRYto1qxZNGrUKBYuXBhTp04t9U3tr7/+Oo4++uh46aWXokuXLht5WgDynVyyeeeSdb377rtx9913V/YYAGzGZJPNL5tcf/31672graioKFq2bBlbbrllNGjQIBYuXBhz5szJ6QJ/AMiEXLJ55JILLrggHnzwwVIfLywsjJ122imaNm0a1atXj3nz5sXEiRNLvSZl4MCBcfzxx8cLL7wQRUVFFTU2AJsh2aTis8ns2bPjqKOOig8++KDU72nQoEG0aNEimjdvHhERCxYsiGnTpsXChQtzeu4fcw0sVC0WCAFgE3P99den/cWpUaNGccMNN8TZZ58dDRs2XFtftWpVDBw4MK6++uqYNGlS0jFTp06NU089NYYMGRLVqlWr8NnTOf/889P+4tSqVau4+eab4+STT47atWuvrS9dujT69+8f1113XXz99ddJx4wePTrOP//8eOqpp8pltueeey6nXyybNWuW9bFff/11nHzyyWl/cTriiCPixhtvjI4dOybVp06dGnfeeWfcf//9sXr16qTHrrnmmthrr72ia9euWc8EAOnIJptHNvmxDh06xHHHHRcHHXRQ7LfffkmvR8T3b96OHz8+Hn744fjb3/6W8mmBy5Yti2OOOSZGjx4dO+20U7nMBAARcsnmmEtKs2rVqjj33HOT3h8pLCxMeb8EACqSbLJ5ZZObbrop7fJgQUFBnHjiiXHSSSdFt27dol69einfs2DBgvjggw9i8ODBMWjQoJSfPwDkSi7J/1zyr3/9q9Tlwd133z1+//vfx7HHHhv169dPemzlypUxbNiwuOOOO+K1115LOXbw4MFx5513ulgfgHIlm1RsNvnuu++iW7duMXbs2JTHmjZtGueff3706NEj9tlnnygoKEj5ns8//zxGjhwZgwYNisGDB8eiRYuymsM1sFAFJQCATcbYsWMT1apVS0RE0r9tt902MWXKlPUeu3jx4kS3bt1Sjo2IxL333ruRziDZoEGD0s7z05/+NDFnzpz1Hjt79uxEhw4d0h7/0ksvlXmW1q1bp/T54osvsjyz3PXs2TPtud1www0bPPbFF19M1KxZM+XY1q1bJ5YuXVrxwwOw2ZBNfpCP2WT69Olrn7tBgwaJSy65JDF27Ngy9Rg/fnyibdu2aV+Xbt26VdDkAGyO5JIf5GMuKasbb7wxad46deokzjzzzLSvCQBUBNnkB5tDNhkwYEDa89tzzz0To0aNKnO/YcOGJW677bYKmBSAzZFc8oN8zSXLly9PtGrVKu15nXPOOYkVK1Zk1Oevf/1roqCgIKVHnTp1El9//XUFnwUAmwvZ5AflnU3W6NGjR9qev/71rxPz5s0rU6/FixcnHnzwwcSQIUPKPIdrYKHqKUgkEokAADYJhx12WAwZMiSpVrdu3Xj//fdjl1122eDxS5cujY4dO8b48eOT6o0bN44vv/wy7aeeVpTVq1dH27ZtUz4RpmXLljF27NjYcsstN9hj1qxZseeee8bMmTOT6jvvvHNMmDAhCgsLM56nTZs28eWXXybVvvjii2jTpk3GPcrLiBEj4qCDDkqp9+7dOx599NGMejz55JNx5plnptRvueWWuPrqq3OeEQAiZJN15Vs2+eqrr2LXXXeNiy++OC677LLYYostsuozc+bM6NSpU0ydOjXlsWHDhkXnzp1znBQA5JJ15VsuKYsJEyZEhw4dYuXKlWtrt99+eyxevDhuvPHGlO/3ZzIAKoJskiyfs8mMGTOiXbt2MX/+/KT6gQceGIMHD96oPysASEcuSZaPueSll16K7t27p9S7du0agwcPLtM53XDDDfGHP/whpX7PPffEb37zm5zmBIAI2WRd5ZlNIiLuv//+uPDCC1Pq/fr1i9/+9rdl6pUL18BC1VS2/48CAFSa999/P+UXp4iI6667LqNfnCIi6tSpE4888khKfd68efHwww/nPGNZPPfccym/OEV8/4tKJr84RUQ0b948+vXrl1KfOHFiPP/887mOWGn+/Oc/p9S23HLLtOdaml/84hfRrVu3lPrdd98dy5cvz2k+AIiQTdLJt2zStGnTmDp1atx8881ZLw9GRLRo0SIefPDBtI8NGDAg674AsIZckirfckmmVq9eHeeee27S8uCee+65Uf8oDgCySap8ziZXXHFFyvLgrrvuankQgCpBLkmVj7lk4MCBaeu33357mZcOrrrqqmjevHlKfdCgQVnNBgA/JpukKs9sMmfOnLSLdddff/1G/zuJa2CharJACACbiHS/3DRp0qTMn/DVqVOntKE63S9VFSnd+bRt2zZOOumkMvU5+eSTo23bthn13xR89dVXMXjw4JT6pZdeGg0aNChTr759+6bUZs+evcm+6Q1A1SKbpJdP2aRWrVrRuHHjcunVrVu3aN++fUr95ZdfLpf+AGze5JL08imXZOree++NkSNHrv26sLAwHn744ahevXolTgXA5kY2SS8fs8no0aPjn//8Z1KtoKAgHnzwQcuDAFQJckl6+ZZLJk+enFLbYYcd0v5dZkNq1aqV9m6GU6ZMyWo2APgx2SS98somN998cyxcuDBlnmuvvbZMfXLlGliouiwQAsAmoLi4OO3dWU4//fSoU6dOmfudd955KbVPP/00Ro8endV8ZTV79ux44403UurnnXdeFBQUlKlXQUFBnHPOOSn1119/PebMmZP1jJXlmWeeidWrVyfVqlevHr179y5zr/322y923333lPrTTz+d9XwAECGbrE++ZZPy1LVr15Ta9OnTI5FIVMI0AOQLuaR0m1su+fLLL+Oaa65Jql100UWxzz77VNJEAGyOZJPS5WM2uf3221NqJ510Uhx00EGVMA0AJJNLSpdvuWTWrFkptV133TXrfukWGL755pus+wFAhGyyPuWRTebNmxePPvpoSv0vf/lLFBUVlWmeXLkGFqouC4QAsAkYNWpUzJ8/P6Xes2fPrPodffTRUbt27ZR6uk/9qAivvvpqlJSUpNRPOOGErPr16tUrpVZSUhKvvvpqVv0qU7qfwUEHHRTNmjXLql+61+aNN96IlStXZtUPACJkkw3Jp2xSnn7yk5+k1FatWhVz586thGkAyBdyyfptTrnk/PPPj8WLF6/9eptttolbbrmlEicCYHMkm6xfPmWTefPmxbPPPptST3fBHwBUBrlk/fIpl6T7oMZc7oac7s5A1apVy7ofAETIJhuSazb5xz/+EUuWLEmqbb311mk/6LmiuQYWqi4LhACwCRg6dGhKrU6dOtGpU6es+tWqVSv233//lHq6T0SpCOnOZ4cddojWrVtn1a9169ax/fbbp9Q31vmUl5UrV8bbb7+dUv/Zz36Wdc90xy5ZsiTeeeedrHsCgGyyfvmSTcpbaZ9qV1jo7SkAsieXrN/mkkuefPLJeOWVV5Jq9957b04XywFANmST9cunbPLss8/GqlWrkmotWrSIQw89tJImAoBkcsn65VMuad68eUotlw9v/Pbbb1NqLVq0yLofAETIJhuSazbp379/Su3UU0/d6NdjuAYWqjZXaAHAJuC9995LqXXo0CGnW4t37Ngxpbaxbt+e7nz23XffnHqmO58PPvggp54b28cffxzLly9Pqefy2uy1115pPwluU3ttAKhaZJMNy4dsUt6mTp2aUqtZs2Y0btx44w8DQN6QSzYs33PJ7Nmzo0+fPkm1E044IXr06FFJEwGwOZNNNixfskm6T9P/2c9+5u48AFQZcsmG5UsuKe08Vq9enVW/dBfj77fffln1AoA1ZJMNyzabLFiwIEaNGpVSr4y7D7oGFqo2C4QAsAn48MMPU2q77757Tj3bt2+fUluwYEF8+eWXOfXdkFWrVsUnn3ySUq+I85kwYUIUFxfn1Dfi+09FmTFjRowbNy4++uijmDFjRixbtiznvutK93OOyO21qVOnTuywww4p9XHjxmXdEwBkkw3Lh2xS3tJ9Ml66T9ADgLKQSzYs33PJxRdfHPPmzVv7dYMGDeKvf/3rRp0BANaQTTYsH7JJIpGIN998M6We7tzWmDt3bnz88ccxevTomDZtWixdurTc5wKAH5NLNiwfcklERM+ePVNq3377bbz44otl7jVjxox49dVXU+onnnhiVrMBwBqyyYZlm02GDx+e9oMDSnufYvXq1TF16tQYPXp0jB8/PmbPnh0lJSXZDb0O18BC1Va9sgcAANZv5cqVMX369JR6ukBcFqVdrP35559nfRv1TEybNi3tLzQVcT6rVq2K6dOnx7bbbptVzxtvvDHGjx8fY8aMSTtzixYt4oADDogDDzwwevbsGdtss01Wz7PGlClTUmr16tWLFi1a5NR3++23j4kTJybVPv/885x6ArD5kk0ykw/ZpDx9/PHHaT+B7+ijj66EaQDIF3JJZvI5lwwaNCieeeaZpNof//jH2GqrrSrk+QBgfWSTzORDNvnyyy+TPsBgjT322CPp6/feey8eeeSRGDx4cHz11Vcp39+qVas47LDDolu3btGrV6+c7roAAD8ml2QmH3JJxPd3KzrkkENi2LBhSfXLLrssDjjggGjSpElGfUpKSuKCCy5IWXRs3759dO/ePec5Adh8ySaZyTabpLvrYosWLWLLLbdc+/XKlSvjn//8Z/zzn/+M4cOHp/z3vrCwMPbaa684/PDD44QTToi99947q3NwDSxUbe5ACABV3PTp09N+OkirVq1y6lva8VOnTs2p74aU1r8qns/f//73eO+990r9BJeZM2fGs88+G3369IntttsuTj311BgzZkzWz5du1vK44C3da1PRP2cA8pdskpl8yCblqW/fvmnrxx9//MYdBIC8IpdkJl9zyaJFi+LXv/51Um2//fZLqQHAxiKbZCYfssn48ePT1tu0aRMR319I2KNHj+jYsWM88sgjaZcHI76/w88TTzwRp512Wuy0007x2GOPRSKRyHouAFhDLslMPuSSNR555JGoV69eUu2zzz6Lww47LCZNmrTB4+fPnx8nnXRSDBw4MKleq1at+Pvf/x6FhS41BiB7sklmsj2fdO9TrHmPIiLihRdeiB133DHOOuuseOWVV9LeFXn16tXx/vvvx5/+9KfYZ599onv37jF27NiyjF/qrK6BhapDqgeAKm7OnDlp682bN8+pb2nHl/Z85aWizqe0Tyip6PNZo7i4OPr37x8dO3aMm266Ke0vvBuSbtZcX5eI9K/NxnpdAMg/sklm8iGblJeXX345nn322ZT6/vvvH506daqEiQDIF3JJZvI1l/zud7+LGTNmrP26evXq8fDDD7ugDYBKI5tkJh+yybRp09LW69evH2+99VbstddeMWjQoDL1nDp1apxzzjlxwgknxJIlS8o8EwD8mFySmXzIJWvssMMO8eKLL0bdunWT6mPHjo327dvHmWeeGc8//3xMmzYtli1bFitXroxZs2bF66+/Hpdffnlsv/328dxzzyUdW6dOnXj++eejQ4cOWc8FABGySaayzSbp3qeoX79+RET8/ve/j+OOO67U9zJK89JLL8W+++4bjz/+eJmOcw0sVG3+igoAVdy8efPS1hs2bJhT32rVqqW8cRgRMXfu3Jz6bkhFnU+DBg3S1iv6fNZVXFwc119/fXTr1i2WL19epmPTvTa5vi4R6V+bZcuWpf0kGQDYENkkM/mQTcrDrFmz4pxzzkmpFxYWRr9+/Tb6PADkF7kkM/mYS9588814+OGHk2qXX355tGvXLqe+AJAL2SQz+ZBNvvnmm7T1Tz75JI488siczuX555+PAw88ML777rusewCAXJKZfMglP9a5c+d4//33o2PHjkn1FStWxJNPPhnHH398tG7dOurUqRM1a9aMFi1axOGHHx533nlnzJ8/P+mYfffdN95///3o1q1b1vMAwBqySWayzSbp3qeoX79+/O53v4vbbrst63lWrlwZvXv3jptuuinjY1wDC1WbBUIAqOIWL16ctl6vXr2ce6f75amiP9W0os4n3blElP18CgsLY999941rrrkm/vWvf8XHH38cs2fPjhUrVsSSJUviq6++irfffjtuv/32OPjgg0vt8/rrr8fpp59epk+IS/faVNTPOaLif9YA5CfZJDP5kE1yVVxcHCeffHLMnDkz5bGLL7445Q/YAFBWcklm8i2XLF++PM4777xIJBJra9ttt11cf/31WfUDgPIim2QmH7LJuhfYr3HmmWcmnUdBQUH07NkznnnmmZg6dWosW7Ys5s+fHx9//HHcfffd0b59+7R9xo4dG2effXbG8wDAuuSSzORDLlnXLrvsEu+880688MIL0aNHj6hdu3bGx9apUydOOeWUGDx4cIwaNSratm2b9RwA8GOySWayzSbp3qd455134vbbb0+qNW7cOK666qoYMWJEzJw5M1asWBHffPNNDBs2LC677LK1dy1c1w033BADBw7M6BxcAwtVW/XKHgAAWL9Vq1alrVevnvt/xouKilJqK1euzLnv+lTU+aQ7l4jMz6d9+/bRp0+fOOOMM6JJkyZpv6dGjRpRp06daNWqVey///5x+eWXx5gxY+LCCy+MkSNHpnz/c889FzfffHPGF7Cle20q6uccUfE/awDyk2ySmXzIJrm64IIL4s0330yp77HHHvHnP/95o8wAQH6TSzKTb7mkb9++MXny5KTaAw88UKYL4gCgIsgmmcmHbLJixYq09RkzZqz9v1u1ahX//ve/o1OnTknfU6tWrWjUqFHstttucdFFF8Xdd98dl19+ecqiwLPPPhsPP/xw/PKXv8xoJgD4MbkkM/mQS0pTVFQUDRo0iFq1amV8Z55ly5bFZ599FuPGjYv99tsvGjVqlNMMALCGbJKZbLNJuvcpfvweRUREr1694qGHHorGjRsn1Vu0aBEtWrSIzp07x+WXXx5nnnlmvPrqq0nfk0gk4swzz4yJEyfGlltuud5ZXAMLVZs7EAJAFVdSUpK2Xq1atZx7p+tRXFycc9/1qajzKe34TM9n4MCBcckll5T6pm5pOnToEG+99VZcfPHFaR+/7bbb0t4iPp10r01F/ZwjKv5nDUB+kk0ykw/ZJBe33HJLPPLIIyn1Ro0axbPPPhs1a9as8BkAyH9ySWbyKZeMGTMm7rzzzqTa6aefHl27di1THwCoCLJJZvIhm2xo1hYtWsSIESNSlgfXVVhYGH369Iknnngi7eO33HJLqRclAsD6yCWZyYdcsq6RI0fGnnvuGUcddVQ89dRTpd45OZ1EIhHvv/9+XHnlldG6dev4y1/+EolEIqs5AODHZJPMZJtNNvT4aaedFs8880zK8uC6WrRoEYMGDYqjjjoq5bEFCxbEXXfdtd7jI1wDC1WdBUIAqOJK+/SN8gi+6XqU9kkd5aWizqe04yv6fCK+/+XkrrvuijPOOCPlsSVLlsTNN9+cUZ90r01F/ZwjNs5rA0D+kU0ykw/ZJFv33XdfXHvttSn12rVrx8CBA2P77bev0OcHYPMhl2QmX3JJcXFxnHPOOUnn07hx4+jXr1+5zAoAuZJNMpMP2WRDsz766KPRpk2bjOc644wzonfv3in1adOmxT//+c+M+wDAGnJJZvIhl/zYXXfdFQcddFCMGzcu5bF27drFFVdcEf3794/XXnsthg0btvZuhz/72c+ioKAg6fsXLVoUl112WXTv3j2WL19e5lkA4Mdkk8xkm03W9/h2220XDz30UBQWZrY2VKNGjXjiiSeiefPmKY/df//98d133633eNfAQtVmgRAAqrjS7s5SHrfeTtejou8GU1HnU9rxG+vuNgUFBfHXv/417SfLPffccxl9Klu6WSvq51za8wHAhsgmmans//6WRzbJxuOPPx6/+c1vUuo1atSI//znP3HQQQdVyPMCsHmSSzKTL7nkjjvuiDFjxqTUmjVrVi5zAkCuZJPM5EM2qVGjRqmPHXjggWk/qX9D/vCHP6S9yO75558vcy8AkEsykw+5ZI377rsv+vTpk3LXnzZt2sQrr7wSH374Ydx2221x8sknx2GHHRadO3eO448/Pq655pp4/fXXY/z48XHooYem9H355ZejZ8+e7kQIQE5kk8xkm03W9z7F1VdfHfXq1SvTHE2bNo1LL700pb5w4cIYOnToeo91DSxUbRYIAaCKq1+/ftr6hj7JIxPpejRo0CDnvutTUedT2vEVfT4/1qhRo7joootS6jNnzky5wC2ddK9NRf2cS3s+ANgQ2SQz+ZBNyuof//hHnHvuuSl/RK5evXr8+9//jm7dupX7cwKweZNLMpMPuWTSpElx4403JtUOOeSQOPvss8ttRgDIlWySmXzIJo0aNSr1sfPOOy+rmVq1ahVHH310Sn348OEu2AegzOSSzORDLomIGDduXNqL/Pfee+8YM2ZMdO3adYM92rZtG6+99lraLPPyyy9Hv379MpoFANKRTTKTbTYp7X2KOnXqxGmnnZbVLOecc07auxa++eab6z3ONbBQtVkgBIAqLt0njUVELFiwIKe+y5cvjxUrVmT8fOWlos6ntOMr+nzW1b1797T19957b4PHpps119eltB4NGjRw+3YAsiKbZCYfsklZ/Pvf/44zzzwzVq9enVSvVq1aPP3009GjR49yfT4AiJBLMrWp55JEIhHnnXdeLF++fG2tZs2a8eCDD5brfACQK9kkM5t6Non4/pP4S3PwwQdnPVO6Y+fOnRufffZZ1j0B2DzJJZnJh1wSEXHFFVek3JVniy22iIEDB673gw/WVVhYGPfff3/sv//+KY/deOON5XLxPwCbJ9kkM9lmk9Lep9hnn32idu3aWc3SpEmT2G233VLqo0aN2uBx63INLFQdFggBoIpr0aJF2vrMmTNz6lva8aU9X3nJt/NZV4cOHaKgoCClPmvWrA0em27WXF+X0nps7NcFgPyRb/8tz7fzWVcu2SRTzz33XJx22mlRUlKSVC8sLIwnnngiTjzxxHJ7LgD4sXz773i+nc+6ss0lDz30UAwfPjypdvXVV8fOO+9crvMBQK7y7b/l+XY+68rlPZNWrVqlrTds2DDatGmT9Ux77rln2vrs2bOz7gnA5inf/jueb+ezrlxyycSJE+O1115LqV922WXRsmXLMs9SvXr1uO2221LqixYtiieffLLM/QAgIv/+W17Vzqe09ylKe58hU+mO39B7FK6BhaqtemUPAACs31ZbbRU1a9ZM+aSUadOm5dS3tOO33XbbnPpuSGn9N9XzWVe1atWiSZMm8e233ybVM/njbrpZZ8yYESUlJVGtWrWsZ0r32mzs1wWA/CGbZCYfskkmXnjhhTjllFOiuLg4qV5QUBCPPvponH766eXyPACQjlySmU09lzzzzDNJXzdp0iQOOeSQDX7K7bq++uqrtPV0fRo0aBC77rprmfoDgGySmU09m0REbLfddmnrjRs3zmmm0u4oMHfu3Jz6ArD5kUsykw+55NVXX01bP+OMM7Ke54ADDojWrVvHl19+mVR/7bXX4sILL8y6LwCbL9kkM9mez8Z8n2JD71G4BhaqNguEAFDFFRQUxPbbbx8TJkxIqk+aNCmnvpMnT05b32GHHXLquyEtW7aMevXqxeLFi5PqFXE+9evXj+bNm+fUt7ysXLlyg9+z4447ptRWrVoVU6dOje233z7r50732qR7LgDIhGySmXzIJhvy4osvxkknnRSrVq1KqhcUFMRDDz0UZ511Vs7PAQDrI5dkZlPPJYlEIunruXPnRufOncvt+Tt16pRS69y5cwwbNqzcngOAzYNskplNPZtEROy0005RWFgYq1evTqrXqVMnp+euW7du2vq6PwMA2BC5JDP5kEtGjx6dUtt6662jdevWOT33gQcemLJAOHbs2Jx6ArD5kk0yk202adu2bdp6RbxPsaH3KFwDC1VbYWUPAABsWIcOHVJq48aNy6nnmDFjUmpbb711NG3aNKe+G1JQUBB77LFHSr0izmePPfaIgoKCnPqWVUlJSdpPWWnQoMEGj033c47I7bX59ttv037Cfq63pwdg8yabbFg+ZJP1GTx4cPTq1SvtH6/vu+++OO+883LqDwCZkks2LN9zCQBUJbLJhuVDNqlXr17ssssuKfVFixblNNPChQvT1nO9YwAAmye5ZMPyIZfMmTMnpVYeC5Dpeqx7h0QAKAvZZMOyzSZ777132npFvE+xofcoXAMLVZsFQgDYBOy7774ptQkTJpT6h8RMjBw5MqPnqQjpnmfUqFEpnyifqUQiEe+8805Gz1PRxowZk/Y8fvKTn2zw2O233z7tbd//97//ZT1Pup9zROW8NgDkD9lk/fIlm5TmtddeixNOOCFWrFiR8thf//rX+PWvf511bwAoK7lk/fI9lwBAVSObrF8+ZZMDDjggpTZ37tyUuxKWxezZs9PWK/rCRwDyk1yyfvmSS4qLi1NqRUVFOc+UrkcuOQcAZJP1yyWb7LHHHmnvFlja+wyZSnf8ht6jcA0sVG0WCAFgE3DYYYel1EpKSuL111/Pqt/s2bPTflpJuuepCOmeZ86cOTF69Ois+n3wwQdpP+lsY53Pjw0aNChtvbRPVvmxgoKC+NnPfpZSf+WVV7KeJ92xLVq0iN133z3rngAgm6xfvmSTdN5444049thjY/ny5SmP9evXLy666KKs+gJAtuSS9cvnXAIAVZFssn75lE26deuWUlu6dGlMmDAh65nee++9tPXWrVtn3ROAzZdcsn75kkvSXcSf7q6EZZWuR7NmzXLuC8DmSzZZv1yySY0aNaJLly4p9ffffz+rWdZI9z5FmzZt1nuMa2CharNACACbgLZt28b222+fUn/mmWey6vevf/0r5ZNOCgoKonv37ln1K6tDDjkk6tevn1LP9nz69++fUqtfv34ccsghWfXL1oIFC+Lee+9NO0vHjh0z6nHMMcek1D7++OOs/uBcXFwcAwYMyOg5AKAsZJP1y6ds8mPDhw+PY445JpYtW5by2B133BG//e1vsxkTAHIil6xfPuSSYcOGRSKRyPnfDTfckLZ/uu8dNmxYeZw2AJsh2WT98iGbrHHEEUdEvXr1Uuqvvvpq1nOlO3b33Xd3sT4AWZFL1i9fcsmWW26ZUvviiy9i3rx5Oc2VbmFAJgEgF7LJ+uWaTXr16pVSGzduXNZ3Ifzss8/iiy++SKmnW1Rcl2tgoeqyQAgAm4gzzjgjpfb888/H9OnTy9QnkUjEfffdl1I/5JBDYuutt856vrKoXbt2nHDCCSn1xx57LJYsWVKmXkuWLInHH388pd6rV6+oVatW1jOWVSKRiN/85jdp34Tt1atX1KxZM6M+xx9/fNrbyd9zzz1lnmnAgAExa9aslHq6/y0BQFnJJunlWzZZ4+23346jjz46li5dmvLYn//857jsssuynhUAciWXpJevuQQAqjrZJL18yyZ169aNk046KaX+4IMPplzAmIlx48bF22+/nVJP96n9AJApuSS9fMolP/3pT1Nqq1evjoEDB2Y91+TJk+Ojjz5KqWfz4ZQA8GOySXrlkU169eqVstBYXFwcDz/8cJlmWSPd6xuR2fsUroGFqssCIQBsIn75y19GjRo1kmqrVq2Ka6+9tkx9Hn/88fj0009T6hdddFHGPdq0aRMFBQVJ/zZ0a/JMnm/u3Llx2223lanPrbfemvbN1EzPZ9iwYfHVV1+V6TnXVVJSEr/97W/jqaeeSnmsWrVqccUVV2Tcq27dunHWWWel1B977LGYNGlSxn1WrFgR1113XUq9ffv2cfDBB2fcBwBKI5ukl2/ZJCLi3XffjaOOOioWL16c8tgf//jH+P3vf5/1rABQHuSS9PIxlwDApkA2SS8fs8mll14aBQUFSbXJkyfH3XffXaY+q1evjosvvjilXlBQEOeee26ZegHAj8kl6eVTLunatWtKHon4/u83K1euzGq2dNeaRER069Ytq34AsIZskl6u2STi++tOf/WrX6XUb7/99pg2bVqZ5hk/fnw88MADKfV99tkn9txzz4xmcQ0sVFEJAGCT8atf/SoRESn//vWvf2V0/MSJExMNGzZMOX733XdPlJSUZDxH69atU3q0bt26zOdzxBFHpPQpKipKvP322xkd/9ZbbyWKiopSehx11FEZz3DJJZckioqKEj//+c8TQ4YMSaxatapM5zBmzJjE/vvvn/bnEhGJyy67rEz9EolEYurUqYmaNWum9Np7770TS5cuzajHr3/965z+twIAmZBNkuVjNhk9enSiUaNGaXvddNNNZeoFABVJLkmWj7kkVzfccEPaOQCgIsgmyfI5m5x++ukpvWrVqpV4/fXXM+7Rp0+ftDP16tUrq5kA4MfkkmT5mEsOP/zwtH1+/vOfJ1avXl2mXvfee2/aXk2bNk0sXry4TL0AIB3ZJFl5ZJM1Zs+endhiiy1Seu2zzz6JefPmZdTjm2++SbRt2zbtz+jFF1/MeBbXwELV5C+jALAJmTNnTqJx48YpgbhmzZqJp59+er3Hjh49OrH11lunDdRvvPFGmeYor1+ePvnkk0SNGjVSejVq1CgxZMiQ9R772muvpf1FsEaNGolPP/004xkuueSSpOMbN26cOPXUUxO333574pVXXkl89tlnidmzZydWrFiRWLZsWeLrr79O/O9//0vccccdic6dO5f6hm5EJA488MDEihUryvy6JBKJxPXXX5+256GHHpqYM2dOqcetWrUq5ZzW/OvcuXNWswBAaWSTH+RjNvn0008TTZo0SdurR48eiZEjR5bLv9mzZ2c8EwCURi75QT7mkvJggRCAjUk2+UG+Z5OZM2eW+rO+66671rtQ8M033yROOeWUtDM1aNAgMWnSpKxmAoAfk0t+kK+55L333ksUFBSk7de9e/eM/g6zbNmyxBVXXFFqn7vuuqtMMwFAaWSTH5RXNvmxRx55JO3rs9tuuyVGjhy53mOHDBmS2G677dIen81Co2tgoerxl1EA2MT85z//KfWNxCOPPDLx/PPPJ2bOnJkoLi5OzJ8/PzFs2LDEeeedl/ZTSiIi0adPnzLPUF6/PCUSicRdd92Vdq6CgoLEKaecknjllVcSc+fOTRQXFye+/fbbxODBgxMnnXRSqW9a3n333WV6/tJ+0cj1X+fOnRMLFy7M6jVJJBKJFStWJDp27Ji2d5MmTRI33XRTYty4cYmlS5cmVq5cmZgyZUrioYceKvXTX7bYYovE1KlTs54HAEojm+RvNnn88ccrZJZ1/z3++ONlmgsASiOX5G8uKQ8WCAHY2GSTzSeb/Pe//00UFham7d+mTZvEpZdemnjmmWcSQ4cOTbzyyiuJRx99NHHaaacl6tWrV+prOnDgwJxmAoAfk0vyP5dccMEFpfatU6dO4vzzz0/85z//SUybNi2xZMmSxIoVKxLffPNNYsiQIYmrr7460bx581KP33vvvTf6B0EBkN9kk/LNJus6/fTTS52nS5cuiTvvvDMxcODAxPDhwxPPP/984tZbb00ccMABpf5Mdthhh8T8+fPLPIdrYKHq8ZdRANgE/fGPfyyXNx+7d++eWLlyZZmfvzx/eUokEolf/vKX5XI+559/fpmfu7zf2K1Ro0biT3/6U6K4uDjr12ONr776KrHtttvmPFPt2rXL/Ak7AFAWskl+ZhMLhABsiuSS/Mwl5cECIQCVQTbZfLLJE088UeoSYVn+Va9ePfHggw+Wy0wA8GNySX7nkuLi4sRxxx1XrnNFRGLHHXfM6A6GAFBWskn5ZZN1LV++PHH00UeXyzzbb799YuLEiVnP4hpYqFoKAwDY5Fx11VXRr1+/qFatWtY9zjjjjBgwYEAUFRWV42TZefDBB+Pyyy/Pqcfvfve7eOCBB8p83O677x6tWrXK6bkjIurWrRvnnntujB07Nq688sqcfjZrtGrVKt58883o0KFD1j2aNWsWgwcPji5duuQ8DwCURjZJlY/ZBAA2BXJJKrkEACqPbJIqX7PJL37xi3jppZeiSZMmWfdo2rRpvPrqq3H++eeXy0wA8GNySap8yiXVqlWLZ555Ji677LIoLCyfy4KPPPLIePPNN6NZs2bl0g8Afkw2SZVtNllXzZo14z//+U9ccsklOfU5/PDD4913342ddtop6x6ugYWqpSCRSCQqewgAIDvvvPNOXHjhhfHBBx9kfEzLli3jtttuizPOOCPr523Tpk18+eWXSbXWrVvH1KlTs+4ZETF48OC45JJLYvLkyRkfs+OOO8Y999wTRxxxRE7PPWnSpHj77bdjzJgxMW7cuJg8eXLMmjUrVq9enfb7q1evHrvttlvsu+++0alTpzjhhBOiQYMGOc1QmuXLl8fNN98cd955ZyxfvjyjYwoKCuLEE0+Mfv36xVZbbVUhcwHAumST/Momf//73+Pss8/OqUcmHn/88TjrrLMq/HkA2LzIJfmVS8pD375948Ybb0yp+zMZABuDbLL5ZJNvv/02+vbtG4899lgsW7Yso2MaNmwYl1xySVx66aXRsGHDCpsNACLkkoj8zyUjRoyIvn37xhtvvJHV+x677rprXHHFFf52A8BGIZuUXzZJ5+23344rr7wyRowYkfExe+yxR/Tt2zeOO+64cpvDNbBQNVggBIA88Prrr8dTTz0Vr7/+esyYMSPl8UaNGsVBBx0UvXr1ipNPPjlq1qxZCVNmpqSkJAYOHBj9+/ePoUOHxpw5c1K+p1mzZtGlS5c45ZRTokePHhX2yfXFxcUxc+bM+O6772Lp0qVRWFgYDRs2jEaNGkXDhg03+ifmz5kzJx5//PEYOHBgvP/++7FixYqkxwsLC6Nt27Zx5JFHRu/evaNt27YbdT4AWEM22TyyCQBsCuQSuWSNYcOGxbBhw1Lqffv23eizALD5kk02n2wyf/78eP755+P111+Pjz76KKZPnx6LFy+OWrVqRdOmTWPLLbeMjh07xuGHHx6HHnpo1KtXb6PPCMDmTS7J/1wyadKk6N+/f4waNSrefffdmDt3btrvq1OnTnTo0CE6duwYxx57bHTu3HmjzQgAa8gmFZsRPvroo3jhhRdixIgRMXHixJgzZ04sX748GjVqFM2aNYttttkmunTpEocffnj89Kc/jYKCggqZwzWwULksEAJAnlmwYEF8/fXXsWTJkrV/hGzZsmVlj5W1b7/9NmbNmhVLly6NOnXqRPPmzaNp06aVPValKykpienTp8eCBQuipKQkGjRoENtss03UqlWrskcDgCSyCQBQVcglAEBVIpsAAFWFXLJ5WLhwYSxYsGDtdSZrFhu32GKLKCwsrOzxAGAt2WTz4BpY2PgsEAIAAAAAAAAAAAAAAABAHvKxIQAAAAAAAAAAAAAAAACQhywQAgAAAAAAAAAAAAAAAEAeskAIAAAAAAAAAAAAAAAAAHnIAiEAAAAAAAAAAAAAAAAA5CELhAAAAAAAAAAAAAAAAACQhywQAgAAAAAAAAAAAAAAAEAeskAIAAAAAAAAAAAAAAAAAHnIAiEAAAAAAAAAAAAAAAAA5CELhAAAAAAAAAAAAAAAAACQhywQAgAAAAAAAAAAAAAAAEAeskAIAAAAAAAAAAAAAAAAAHnIAiEAAAAAAAAAAAAAAAAA5CELhAAAAAAAAAAAAAAAAACQhywQAgAAAAAAAAAAAAAAAEAeskAIAAAAAAAAAAAAAAAAAHnIAiEAAAAAAAAAAAAAAAAA5CELhAAAAAAAAAAAAAAAAACQhywQAgAAAAAAAAAAAAAAAEAeskAIAAAAAAAAAAAAAAAAAHnIAiEAAAAAAAAAAAAAAAAA5CELhAAAAAAAAAAAAAAAAACQhywQAgAAAAAAAAAAAAAAAEAeskAIAAAAAAAAAAAAAAAAAHnIAiEAAAAAAAAAAAAAAAAA5CELhAAAAAAAAAAAAAAAAACQhywQAgAAAAAAAAAAAAAAAEAeskAIAAAAAAAAAAAAAAAAAHnIAiEAAAAAAAAAAAAAAAAA5CELhAAAAAAAAAAAAAAAAACQhywQAgAAAAAAAAAAAAAAAEAeskAIAAAAAAAAAAAAAAAAAHnIAiEAAAAAAAAAAAAAAAAA5CELhAAAAAAAAECV0bdv3ygoKEj617dv38oei41k4cKF0bx586Sf/2OPPVbZY6U1ceLEKCoqSpp1xIgRlT0WAAAAAABAEguEAAAAAAAAAFQJ1113XcyePXvt17vvvnucddZZlTfQeuy8885xzjnnJNUuuuiiKCkpqaSJAAAAAAAAUlkgBAAAAAAAgM3U1KlTU+72V1n/pk6dWtkvB5Vs3Lhxcf/99yfVbr311igsrLp/1u7bt2/UqVNn7dfjxo2LBx54oBInAgAAAAAASFZ1/9ICAAAAAAAAwGajT58+SXfv69SpUxx11FGVONGGtWjRIi688MKk2vXXXx8LFy6spIkAAAAAAACSWSAEAAAAAAAAoFK99tprMXTo0KTaVVddVUnTlE2fPn2iZs2aa7+eP39+3H777ZU4EQAAAAAAwA8sEAIAAAAAAABQqa655pqkr3fffffo3r17JU1TNi1btoyzzjorqXb33XfHnDlzKmcgAAAAAACAHylIJBKJyh4CAAAAAAAA2PhWrFgRY8aMyerYCy64IOXYDh06xP33359Vvw4dOiTdxY3Nx4svvhjHHHNMUu2xxx6Ls88+u5ImKrtJkybFzjvvnFS74oor4rbbbqukiQAAAAAAAL5ngRAAAAAAAAAos0MOOSTefPPNpFrnzp1j2LBhlTMQm6x1/7fUsGHD+Prrr6NOnTqVOFXZpTuPr776KurVq1eJUwEAAAAAAJu7wsoeAAAAAAAAAIDN0+jRo1MWUc8444xNbnkwIuKXv/xl0tcLFy6MRx99tJKmAQAAAAAA+J4FQgAAAAAAAAAqxT333JNS6927dyVMkruePXtGw4YNk2r33HNPJBKJSpoIAAAAAADAAiEAAAAAAAAAlWDx4sUxYMCApNq2224be+21VyVNlJuaNWtG9+7dk2qff/55vPXWW5U0EQAAAAAAQET1yh4AAAAAAAAAoDKMHz8+Pvzww/jmm29i6dKl0aBBg2jTpk3st99+seWWW5ap17Jly2LMmDExYcKEmDdvXkRENG/ePHbYYYfYb7/9olq1ahVxCmstXbo0xowZE1OmTIk5c+bEsmXLolGjRtG8efPYeuutY5999onq1avWn4efe+65WLJkSVKtZ8+e5focq1atigkTJsSECRNi/vz5sWjRoigpKYk6depE3bp1Y6uttoo2bdrE9ttvH7Vr1875+Xr16hX/+Mc/kmpPPPFEHHzwwTn3BgAAAAAAyEbV+gsRAAAAAAAAsFnr27dv3HjjjUm1G264Ifr27bvBY4cNGxZdunRJqnXu3DmGDRu29ut58+bF3XffHY8++mjMmDEjbZ9q1apFt27d4g9/+EP89Kc/Xe9zjh8/Pv785z/H888/H4sXL077PU2aNIlf/OIXccMNN0TDhg03eB6ZWr58eTz11FPxj3/8I0aMGBHFxcWlfm/Dhg3j8MMPj1/+8pdx+OGHl9sMuVh30S4i4rjjjsu5b3FxcQwYMCD+7//+L15//fVYuXLlBo+pXr16tGvXLvbff/849thjo0uXLlktXB5xxBFRq1atWL58+dragAED4v7774+aNWuWuR8AAAAAAECuCit7AAAAAAAAAICNYeDAgbHLLrvEH/7wh1KXByMiSkpK4uWXX46OHTvGzTffnPZ7Vq1aFVdccUW0b98+nnrqqVKXByMi5s6dG/369YtddtklRo0alfN5JBKJePzxx6NNmzZx3nnnxbBhw9a7PBgRsXDhwhgwYEB07do1jjrqqJg4cWLOc+Ri8eLFSYudERF169aNjh075tR3xIgR0aFDhzj11FPj5Zdfzmh5MOL7pcMxY8bEfffdF127do3u3btn9fy1atWKTp06JdUWLVoUw4cPz6ofAAAAAABAriwQAgAAAAAAAHnvwQcfjOOPPz7mzJmT8TGrV6+O6667Lq677rqk+rJly+Loo4+OO+64I1avXp1xv5kzZ0a3bt3i/fffz/iYdS1atCiOP/746N27d8yaNSurHoMHD4799tsv3nrrraznyNWQIUNSlvv233//KCoqyrrngAED4tBDD42PP/441/GS7iBYVuveBTMi4uWXX85lHAAAAAAAgKxVr+wBAAAAAAAAACrSCy+8EBdeeGHKst92220XLVq0iOrVq8eMGTNiypQpaY+/+eab48ADD4xu3brF6tWr48QTT4zXXnst6Xtq164d2223XTRr1iyWLl0an332WcybNy+l16JFi+L000+PDz/8MGrWrFmm85g/f3507dp1vQuITZo0iW222SYaN24c3333XUybNi3touGCBQuia9euMWjQoDjssMPKNEd5eOWVV1JqBx10UNb9xo4dG6eeemqpd2KsUaNGtGnTJpo1axa1a9eOZcuWxcKFC+Prr79O+3PKRefOnVNq//3vf6Nfv37l+jwAAAAAAACZcAdCAAAAAAAAIG/NmjUrevfuvXZ5sHHjxnHHHXfEV199FVOmTIm333473nzzzfjss8/i888/j969e6ftc8kll8Tq1avjlltuiZdeemltfb/99otBgwbF3Llz4+OPP46hQ4fGO++8E7Nnz45XXnkldtttt5RekyZNijvuuKNM55FIJOLnP/952uXBhg0bxlVXXRUffvhhzJkzJ8aMGRNDhgyJd999N2bOnBljx46N8847L6pVq5Z03PLly+P000+P2bNnl2mW8jBy5MiU2h577JF1vwsuuCBlebCgoCBOOeWUeOONN+K7776LiRMnxogRI+K1116LESNGxEcffRRz586NGTNmxMCBA+NXv/pVtGrVKusZ1kh3HhMnToz58+fn3BsAAAAAAKCsLBACAAAAAAAAeevTTz9de4e5/fffPyZNmhSXXXZZ2kWxbbfdNh599NG4/fbbUx6bOHFi3H777XHzzTdHxPfLaX/+859j5MiR0b1796hdu3bS91erVi26du0aI0eOjH322Sel30MPPZRyR8T1ufPOO5MWF9c44ogjYsqUKfHHP/4x2rVrFwUFBSnfs8cee8TDDz8cw4cPjyZNmiQ9Nnv27Dj33HMznqM8LF++PD7++OOUert27bLq9+mnn6YsJBYUFET//v3jn//8Z3Tp0iVq1KhR6vFbbbVVHHPMMfHAAw/EtGnT4rnnnosDDjggq1kivl/o/MlPfpJUSyQS671zJAAAAAAAQEWxQAgAAAAAAADkvQ4dOsTrr7+eskCXzuWXXx4HH3xwSv3KK6+MlStXRkTErbfeGr///e832Kt+/frxxBNPRPXq1ZPq06dPjzfeeCOj2b/44ou4+uqrU+onnXRSvPzyyxmdU8T3C5RDhgyJWrVqJdUHDRoUH3zwQUY9ysOHH36YcrfAunXrRps2bbLq98orr6TUfv7zn8dJJ51U5l6FhYVx/PHHxy233JLVLGukW4a0QAgAAAAAAFQGC4QAAAAAAABAXisqKoqnn3465S6B69OnT59SH+vSpUtcfvnlGfdq27ZtHHnkkSn1t956K6Pj+/XrF6tWrUqq7bbbbvHEE0+kvePg+uyxxx7xpz/9KaV+1113lalPLiZPnpxS23rrrct8LmtMnz49pda9e/esepWXbbbZJqX22WefVcIkAAAAAADA5s4CIQAAAAAAAJDXTjrppNhll13KdMwRRxwRRUVFaR+77rrryrzsduyxx6bURo8evcHj5s2bF4899lhK/Y477ki5k2CmfvWrX8WWW26ZVPvXv/4VS5YsyapfWU2dOjWl1qpVq6z7LVq0KKXWoEGDrPuVh6233jqllu68AQAAAAAAKpoFQgAAAAAAACCv9e7du8zH1KpVK3baaaeUeuvWraNLly5l7te+ffuU2qRJkzZ43KBBg1IW+3bcccc44ogjyjzDGrVq1YpevXol1VauXBnvvPNO1j3LYtq0aSm1rbbaKut+jRo1Sqm9++67WfcrD+nOJ915AwAAAAAAVDQLhAAAAAAAAEDeql69euy3335ZHdu6deuU2gEHHJBVrzZt2qTUFi5cuMHjhg8fnlLr2bNnVjP82EEHHZRS+9///pdz30wsWLAgpVavXr2s++22224ptTvvvDM+/PDDrHvmKt35pDtvAAAAAACAimaBEAAAAAAAAMhbrVu3jjp16mR1bP369VNqbdu2Lbde2S4Q7r333lnN8GPpFho31sLd0qVLU2q1a9fOul/Xrl2jqKgoqbZw4cLYd99948orr4wvvvgi697ZSve/uXXvJAkAAAAAALAxVK/sAQAAAAAAAAAqSuPGjbM+tlatWuXWL12v5cuXr/eYFStWxGeffZZSX7p0aYwaNSqrOdaYNm1aSm3evHk59cxUugXCdK9Pplq2bBlnn312PPzww0n15cuXx6233hq33npr7LXXXtGtW7c4+OCDo1OnTtGwYcOsny8T6RYily1bFolEIgoKCir0uQEAAAAAAH7MAiEAAAAAAACQt7K9++DG6rc+c+fOTVv/xS9+USHPt7EWCNe9W2BERHFxcU4977zzzhg1alSpd1EcPXp0jB49Ov70pz9FQUFBtG3bNg455JA49NBD47DDDiv3hcJVq1al1KpXr255EAAAAAAA2OgKK3sAAAAAAAAAAFJtrIW+NRYuXLhRnifdEuayZcty6lmvXr148803o0ePHhv83kQiERMmTIj7778/evXqFS1atIgTTzwxhg4dmtMMP5buLot169Ytt/4AAAAAAACZskAIAAAAAAAAUAUtWLBgoz5fSUnJRnmeevXqpdRyXSCMiGjUqFG88MILMXjw4OjcuXPGd/tbvnx5DBgwIA499NDo0qVLTJkyJedZ0p2PBUIAAAAAAKAyWCAEAAAAAAAAqIKqV69e2SNUiJYtW6bU5syZU279jzjiiBg2bFhMmTIl/vKXv8QxxxwTjRo1yujYYcOGxV577RXDhg3LaYZ057PVVlvl1BMAAAAAACAbFggBAAAAAAAAqqAGDRqkrU+YMCESiUS5/5s6depGOa82bdqk1GbMmFHuz7PttttGnz59YuDAgTF37tz48MMP4957742TTz45mjVrVupxixYtiuOPPz6+/PLLrJ873fm0bt06634AAAAAAADZskAIAAAAAAAAUAVts802aetz587dyJOUr3QLhF999VWFPmdhYWG0a9cuLrzwwujfv3/MnDkzRowYEb17944aNWqkfP+CBQvi+uuvz/r50i0QpjtvAAAAAACAimaBEAAAAAAAAKAKql+/fmy99dYp9VzujFcVtGvXLqU2e/bsWLRo0UabobCwMA444IB49NFH46OPPooddtgh5Xv+/e9/x4oVK7LqP2nSpJRa+/bts+oFAAAAAACQCwuEAAAAAAAAAFVUp06dUmpDhw6thEnKz9Zbbx0tWrRIqiUSifj4448rZZ6ddtop+vfvn1JftmxZfPDBB2XuV1JSEuPHj0+p77PPPlnNBwAAAAAAkAsLhAAAAAAAAABVVPfu3VNqL7/8ctZ3xqsq0i3Tffjhh5Uwyfd++tOfpr0L4cyZM8vca/LkybFs2bKkWv369WPnnXfOej4AAAAAAIBsWSAEAAAAAAAAqKKOO+64qFevXlLtm2++iYcffriSJiofXbp0Sam9++67lTDJD5o2bZpSKykpKXOf9957L6V28MEHR2GhP88DAAAAAAAbn79QAAAAAAAAAFRRDRo0iPPOOy+lfv3118cnn3xSCROVjyOPPDKlNmzYsI0/yP+3evXq+OKLL1LqrVq1KnOvoUOHptSOOuqorOYCAAAAAADIlQVCAAAAAAAAgCrs2muvjSZNmiTVFixYEEcddVS5LBFOnjw5nnzyyZz7lMUuu+wS2267bVLtiy++iGnTppW515VXXhlvvvlmTvP0798/Zs2alVSrVatW7L777mXulW6BMN3CJAAAAAAAwMZggRAAAAAAAACgCmvcuHH87W9/S6lPnTo19t5777jrrrti6dKlZeq5ePHiGDBgQBxzzDGx8847x9NPP11e42asZ8+eKbVXXnmlzH3++9//xiGHHBIdO3aMBx98MGbPnl2m4wcMGBDnn39+Sr179+7RoEGDMvWaNGlSTJ06NanWoUOHlGVJAAAAAACAjaV6ZQ8AAAAAAAAAwPodd9xxcdNNN8V1112XVF+6dGn06dMn/vCHP8Qpp5wSBx10UHTo0CGaNm0ajRo1ihUrVsSiRYti3rx58cknn8SHH34Y7733XgwdOjRWrFhRSWfzvV/84hdxxx13JNUGDBgQ5513Xlb93nvvvXjvvffioosuigMOOCD233//2GuvvWLXXXeNJk2axBZbbBEFBQXx3XffxZQpU2LUqFHRv3//GDlyZEqvWrVqxc0331zmGZ599tmU2plnnpnV+QAAAAAAAJQHC4QAAAAAAAAAm4Brr702CgsL45prrkl5bP78+fHAAw/EAw88UAmTZaddu3ax5557xtixY9fWhg4dGvPnz48tttgi674lJSUxfPjwGD58eFbHFxQUxH333Rc777xzmY9dd4GwevXqcdppp2U1BwAAAAAAQHkorOwBAAAAAAAAAMjM1VdfHS+++GI0b968XPsWFRWVa79MnX/++Ulfr1q1KgYMGFAps0RE1KlTJ55++uno3bt3mY+dPHlyfPDBB0m14447Lpo1a1Ze4wEAAAAAAJSZBUIAAAAAAACATcjRRx8dkyZNimuuuSYaN26cdZ+ioqI48sgjo3///vHvf/+7HCfM3JlnnhlNmjRJqj388MNl6nH11VfHscceG3Xr1s16jsLCwjj55JPj008/jVNOOSWrHunmvvTSS7OeCQAAAAAAoDwUJBKJRGUPAQAAAAAAAGxaJkyYEIsWLUqqNWjQIHbddddKmmjztGzZsnjppZfixRdfjFGjRsXkyZNj9erVab93q622il122SX22muvOPTQQ+Pggw/OaemuvFx77bVxyy23JNVGjx4dHTp0KFOfFStWxKhRo+J///tfjBo1Kj755JOYOnVqrFq1Ku33t2zZMvbcc8847LDD4tRTT42WLVtmfQ4rV66MrbfeOubMmbO2tt9++8XIkSOz7gkAAAAAAFAeLBACAAAAAAAA5IlVq1bFjBkzYuHChbFy5cqoU6dO1K9fP5o0aVIllgXTmT17dmy33XaxZMmStbVzzjkn/va3v+Xcu6SkJGbNmhWLFi2KxYsXR1FRUTRo0CAaN24cDRs2zLn/Gv/4xz/ijDPOSKq98MIL0aNHj3J7DgAAAAAAgGxYIAQAAAAAAACgUl199dXxpz/9ae3XNWrUiC+++CK22mqrSpwqM4lEIvbYY4/46KOP1tb23XffGDVqVCVOBQAAAAAA8L3Cyh4AAAAAAAAAgM3bFVdcEY0aNVr79cqVK+Mvf/lL5Q1UBi+99FLS8mBExC233FJJ0wAAAAAAACSzQAgAAAAAAABApdpiiy3iqquuSqo99NBD8e2331bSRJlbd1mwa9eu8bOf/aySpgEAAAAAAEhmgRAAAAAAAACASvfb3/42dt5557VfL168OG666aZKnGjDnnvuuRg1atTar4uKiuKee+6pxIkAAAAAAACSWSAEAAAAAAAAoNLVqFEj/vrXvybVHnzwwfj8888raaL1Ky4uTrlr4qWXXpq0BAkAAAAAAFDZqlf2AAAAAAAAAAAQEXH44YfH/fffH7NmzVpbmzp1amy33XaVOFV606ZNi1NPPXXt1wUFBXH55ZdX4kQAAAAAAACpChKJRKKyhwAAAAAAAAAAAAAAAAAAyldhZQ8AAAAAAAAAAAAAAAAAAJQ/C4QAAAAAAAAAAAAAAAAAkIcsEAIAAAAAAAAAAAAAAABAHrJACAAAAAAAAAAAAAAAAAB5yAIhAAAAAAAAAAAAAAAAAOQhC4QAAAAAAAAAAAAAAAAAkIcsEAIAAAAAAAAAAAAAAABAHrJACAAAAAAAAAAAAAAAAAB5yAIhAAAAAAAAAAAAAAAAAOQhC4QAAAAAAAAAAAAAAAAAkIcsEAIAAAAAAAAAAAAAAABAHrJACAAAAAAAAAAAAAAAAAB5yAIhAAAAAAAAAAAAAAAAAOQhC4QAAAAAAAAAAAAAAAAAkIcsEAIAAAAAAAAAAAAAAABAHrJACAAAAAAAAAAAAAAAAAB5yAIhAAAAAAAAAAAAAAAAAOQhC4QAAAAAAAAAAAAAAAAAkIcsEAIAAAAAAAAAAAAAAABAHrJACAAAAAAAAAAAAAAAAAB5yAIhAAAAAAAAAAAAAAAAAOQhC4QAAAAAAAAAAAAAAAAAkIcsEAIAAAAAAAAAAAAAAABAHrJACAAAAAAAAAAAAAAAAAB5yAIhAAAAAAAAAAAAAAAAAOQhC4QAAAAAAAAAAAAAAAAAkIcsEAIAAAAAAAAAAAAAAABAHrJACAAAAAAAAAAAAAAAAAB5yAIhAAAAAAAAAAAAAAAAAOQhC4QAAAAAAAAAAAAAAAAAkIcsEAIAAAAAAAAAAAAAAABAHrJACAAAAAAAAAAAAAAAAAB5yAIhAAAAAAAAAAAAAAAAAOQhC4QAAAAAAAAAAAAAAAAAkIcsEAIAAAAAAAAAAAAAAABAHrJACAAAAAAAAAAAAAAAAAB5yAIhAAAAAAAAAAAAAAAAAOQhC4QAAAAAAAAAAAAAAAAAkIcsEAIAAAAAAAAAAAAAAABAHrJACAAAAAAAAAAAAAAAAAB5yAIhAAAAAAAAAAAAAAAAAOQhC4QAAAAAAAAAAAAAAAAAkIcsEAIAAAAAAAAAAAAAAABAHrJACAAAAAAAAAAAAAAAAAB5yAIhAAAAAAAAAAAAAAAAAOQhC4QAAAAAAAAAAAAAAAAAkIcsEAIAAAAAAAAAAAAAAABAHrJACAAAAAAAAAAAAAAAAAB5yAIhAAAAAAAAAAAAAAAAAOQhC4QAAAAAAAAAAAAAAAAAkIcsEAIAAAAAAAAAAAAAAABAHrJACAAAAAAAAAAAAAAAAAB5yAIhAAAAAAAAAAAAAAAAAOQhC4QAAAAAAAAAAAAAAAAAkIcsEAIAAAAAAAAAAAAAAABAHrJACAAAAAAAAAAAAAAAAAB5yAIhAAAAAAAAAAAAAAAAAOQhC4QAAAAAAAAAAAAAAAAAkIcsEAIAAAAAAAAAAAAAAABAHrJACAAAAAAAAAAAAAAAAAB5yAIhAAAAAAAAAAAAAAAAAOQhC4QAAAAAAAAAAAAAAAAAkIf+H8ftIfhGkUpaAAAAAElFTkSuQmCC;" parent="1" vertex="1">
          <mxGeometry x="404" y="754" width="3600" height="1000" as="geometry" />
        </mxCell>
        <mxCell id="Zqw-ch9AsDecB6gW7WVr-2" value="" style="endArrow=none;html=1;rounded=0;strokeWidth=3;fillColor=#f8cecc;strokeColor=#b85450;" parent="1" edge="1">
          <mxGeometry width="50" height="50" relative="1" as="geometry">
            <mxPoint x="968" y="870" as="sourcePoint" />
            <mxPoint x="1085" y="870" as="targetPoint" />
          </mxGeometry>
        </mxCell>
        <mxCell id="Zqw-ch9AsDecB6gW7WVr-5" value="" style="endArrow=none;html=1;rounded=0;strokeWidth=3;fillColor=#f8cecc;strokeColor=#b85450;" parent="1" edge="1">
          <mxGeometry width="50" height="50" relative="1" as="geometry">
            <mxPoint x="968" y="870" as="sourcePoint" />
            <mxPoint x="978" y="860" as="targetPoint" />
          </mxGeometry>
        </mxCell>
        <mxCell id="Zqw-ch9AsDecB6gW7WVr-6" value="" style="endArrow=none;html=1;rounded=0;strokeWidth=3;fillColor=#f8cecc;strokeColor=#b85450;" parent="1" edge="1">
          <mxGeometry width="50" height="50" relative="1" as="geometry">
            <mxPoint x="968" y="870" as="sourcePoint" />
            <mxPoint x="978" y="880" as="targetPoint" />
          </mxGeometry>
        </mxCell>
        <mxCell id="Zqw-ch9AsDecB6gW7WVr-7" value="" style="endArrow=none;html=1;rounded=0;strokeWidth=3;fillColor=#f8cecc;strokeColor=#b85450;" parent="1" edge="1">
          <mxGeometry width="50" height="50" relative="1" as="geometry">
            <mxPoint x="1087" y="870" as="sourcePoint" />
            <mxPoint x="1077" y="860" as="targetPoint" />
          </mxGeometry>
        </mxCell>
        <mxCell id="Zqw-ch9AsDecB6gW7WVr-8" value="" style="endArrow=none;html=1;rounded=0;strokeWidth=3;fillColor=#f8cecc;strokeColor=#b85450;" parent="1" edge="1">
          <mxGeometry width="50" height="50" relative="1" as="geometry">
            <mxPoint x="1087" y="870" as="sourcePoint" />
            <mxPoint x="1077" y="880" as="targetPoint" />
          </mxGeometry>
        </mxCell>
        <mxCell id="Zqw-ch9AsDecB6gW7WVr-9" value="$$\delta$$" style="text;html=1;strokeColor=none;fillColor=none;align=center;verticalAlign=middle;whiteSpace=wrap;rounded=0;strokeWidth=1;fontSize=40;" parent="1" vertex="1">
          <mxGeometry x="1001" y="830" width="60" height="30" as="geometry" />
        </mxCell>
        <mxCell id="jMyiOE4-3CMf96igv-2w-1" value="" style="endArrow=none;dashed=1;html=1;rounded=0;" parent="1" edge="1">
          <mxGeometry width="50" height="50" relative="1" as="geometry">
            <mxPoint x="968" y="1460" as="sourcePoint" />
            <mxPoint x="968" y="869" as="targetPoint" />
          </mxGeometry>
        </mxCell>
        <mxCell id="jMyiOE4-3CMf96igv-2w-2" value="" style="endArrow=none;dashed=1;html=1;rounded=0;" parent="1" edge="1">
          <mxGeometry width="50" height="50" relative="1" as="geometry">
            <mxPoint x="1088" y="1460" as="sourcePoint" />
            <mxPoint x="1088" y="872" as="targetPoint" />
          </mxGeometry>
        </mxCell>
      </root>
    </mxGraphModel>
  </diagram>
</mxfile>
